if (_typeface_js && _typeface_js.loadFace) _typeface_js.loadFace({"glyphs":{"S":{"x_min":32.546875,"x_max":1166,"ha":1198,"o":"m 32 307 l 305 307 q 333 218 305 237 q 386 202 354 205 q 589 199 418 200 q 804 201 768 199 q 861 211 840 203 q 893 281 893 224 q 870 337 893 323 q 781 352 848 351 q 559 360 728 352 q 334 370 386 368 q 178 389 232 373 q 93 441 123 405 q 41 640 41 500 q 100 861 41 797 q 240 926 146 912 q 623 940 334 940 q 910 928 827 940 q 1085 857 1038 910 q 1133 678 1133 804 q 1131 635 1133 666 l 858 635 q 852 687 857 673 q 832 711 847 702 q 767 724 813 721 q 572 728 721 728 q 353 716 392 728 q 314 654 314 705 q 353 594 314 605 q 652 577 385 586 q 952 562 877 571 q 1073 527 1028 552 q 1144 443 1123 496 q 1166 290 1166 389 q 1130 95 1166 159 q 1057 25 1104 48 q 924 -5 1010 2 q 583 -14 833 -14 q 275 -3 374 -14 q 125 35 175 7 q 53 114 73 65 q 33 263 33 163 l 32 307 "},"¦":{"x_min":212,"x_max":482,"ha":694,"o":"m 212 926 l 482 926 l 482 423 l 212 423 l 212 926 m 212 213 l 482 213 l 482 -231 l 212 -231 l 212 213 "},"/":{"x_min":-46.109375,"x_max":896.546875,"ha":850,"o":"m 896 1126 l 130 -201 l -46 -201 l 719 1126 l 896 1126 "},"y":{"x_min":-18.203125,"x_max":919.703125,"ha":901,"o":"m -18 657 l 251 657 l 438 179 l 647 657 l 919 657 l 569 -85 q 502 -216 518 -192 q 455 -260 487 -241 q 276 -296 398 -296 q 171 -292 197 -296 l 171 -122 q 225 -122 185 -122 q 316 -99 288 -122 q 374 0 345 -75 l 274 0 l -18 657 "},"Ž":{"x_min":28,"x_max":1174,"ha":1202,"o":"m 43 926 l 1154 926 l 1154 713 l 475 222 l 1174 231 l 1174 0 l 28 0 l 28 216 l 697 703 l 43 694 l 43 926 m 937 1205 l 591 1018 l 246 1205 l 284 1295 l 591 1217 l 898 1295 l 937 1205 "},"Á":{"x_min":-23.0625,"x_max":1390.25,"ha":1367,"o":"m 1070 0 l 990 157 l 378 157 l 299 0 l -23 0 l 467 926 l 906 926 l 1390 0 l 1070 0 m 891 360 l 713 711 l 657 711 l 478 360 l 891 360 m 895 1344 l 1003 1127 l 608 989 l 550 1098 l 895 1344 "},"g":{"x_min":37,"x_max":964,"ha":1015,"o":"m 733 657 l 964 657 l 964 53 q 960 -58 964 -29 q 942 -128 957 -88 q 889 -211 926 -174 q 803 -264 851 -248 q 481 -299 701 -299 q 249 -283 325 -299 q 125 -226 172 -267 q 53 -60 63 -171 l 303 -60 l 305 -66 q 352 -116 316 -104 q 485 -129 388 -129 q 625 -119 582 -129 q 691 -86 668 -110 q 713 -40 708 -65 q 719 53 719 -15 l 719 111 l 709 111 q 615 29 672 50 q 437 8 559 8 q 240 20 311 8 q 126 63 169 33 q 56 161 75 100 q 37 349 37 222 q 75 563 37 502 q 194 649 114 625 q 440 674 273 674 q 624 653 568 674 q 721 571 681 632 l 733 571 l 733 657 m 509 489 q 327 464 371 489 q 293 422 303 450 q 283 341 283 395 q 296 249 283 277 q 348 207 310 220 q 496 193 392 193 q 680 222 637 193 q 709 263 701 237 q 718 341 718 288 q 707 426 718 398 q 669 467 696 454 q 509 489 625 489 "},"²":{"x_min":50,"x_max":761,"ha":812,"o":"m 234 735 l 50 735 q 50 753 50 750 q 69 859 50 824 q 134 911 88 895 q 423 932 192 932 q 621 927 573 932 q 697 907 669 923 q 743 856 730 889 q 757 761 757 823 q 744 666 757 700 q 701 612 731 631 q 573 581 666 589 q 422 570 560 579 q 286 561 315 564 q 248 552 258 558 q 237 537 239 546 q 234 497 234 528 l 761 497 l 761 370 l 59 370 q 58 438 58 407 q 66 582 58 543 q 100 645 74 621 q 216 686 133 675 q 374 699 234 689 q 557 717 537 710 q 574 728 570 721 q 579 754 579 735 q 558 794 579 788 q 421 801 538 801 q 246 791 261 801 q 234 735 234 784 "},"–":{"x_min":46,"x_max":913,"ha":959,"o":"m 46 428 l 913 428 l 913 239 l 46 239 l 46 428 "},"ë":{"x_min":37,"x_max":926,"ha":963,"o":"m 676 210 l 920 210 q 855 56 910 102 q 721 -1 808 14 q 461 -17 634 -17 q 241 -3 317 -17 q 119 44 164 10 q 54 140 72 80 q 37 324 37 200 q 43 465 37 418 q 69 550 50 512 q 211 652 108 628 q 485 673 300 673 q 717 661 650 673 q 881 572 836 641 q 926 341 926 503 q 925 275 926 325 l 282 275 q 289 203 282 224 q 314 167 295 181 q 480 140 351 140 q 603 146 562 140 q 659 167 644 152 q 676 210 671 180 m 679 409 q 674 462 678 447 q 659 488 670 476 q 489 521 627 521 q 325 499 365 521 q 282 409 285 477 l 679 409 m 180 968 l 438 968 l 438 792 l 180 792 l 180 968 m 533 968 l 791 968 l 791 792 l 533 792 l 533 968 "},"ƒ":{"x_min":18.3125,"x_max":920.953125,"ha":926,"o":"m 351 446 l 187 446 l 219 621 l 382 621 q 391 664 389 656 q 421 782 405 740 q 463 851 438 824 q 579 923 512 905 q 792 942 646 942 q 920 938 857 942 l 892 777 q 828 778 842 778 q 689 750 724 778 q 662 713 671 736 q 642 621 653 690 l 883 621 l 853 446 l 611 446 l 550 100 q 511 -38 534 11 q 446 -120 487 -88 q 340 -170 400 -157 q 159 -184 279 -184 q 18 -181 101 -184 l 46 -19 q 111 -20 97 -20 q 249 7 213 -20 q 290 100 278 29 l 351 446 "},"Î":{"x_min":-40.4375,"x_max":464.4375,"ha":426,"o":"m 64 926 l 360 926 l 360 0 l 64 0 l 64 926 m 212 1116 l 6 1040 l -40 1127 l 212 1314 l 464 1127 l 417 1040 l 212 1116 "},"e":{"x_min":37,"x_max":926,"ha":963,"o":"m 676 210 l 920 210 q 855 56 910 102 q 721 -1 808 14 q 461 -17 634 -17 q 241 -3 317 -17 q 119 44 164 10 q 54 140 72 80 q 37 324 37 200 q 43 465 37 418 q 69 550 50 512 q 211 652 108 628 q 485 673 300 673 q 717 661 650 673 q 881 572 836 641 q 926 341 926 503 q 925 275 926 325 l 282 275 q 289 203 282 224 q 314 167 295 181 q 480 140 351 140 q 603 146 562 140 q 659 167 644 152 q 676 210 671 180 m 679 409 q 674 462 678 447 q 659 488 670 476 q 489 521 627 521 q 325 499 365 521 q 282 409 285 477 l 679 409 "},"Ã":{"x_min":-23.0625,"x_max":1390.25,"ha":1367,"o":"m 1070 0 l 990 157 l 378 157 l 299 0 l -23 0 l 467 926 l 906 926 l 1390 0 l 1070 0 m 891 360 l 713 711 l 657 711 l 478 360 l 891 360 m 888 1255 l 1016 1255 q 1009 1166 1014 1194 q 988 1115 1004 1138 q 883 1058 950 1058 q 689 1096 823 1058 q 525 1133 561 1133 q 477 1078 479 1133 l 350 1078 q 382 1215 352 1174 q 504 1275 424 1275 q 569 1267 537 1275 q 706 1231 602 1260 q 852 1200 819 1200 q 880 1210 873 1200 q 888 1255 887 1221 "},"J":{"x_min":5,"x_max":982,"ha":1042,"o":"m 700 926 l 982 926 l 982 372 q 969 179 982 241 q 921 76 956 117 q 788 5 876 24 q 507 -14 701 -14 q 169 11 273 -14 q 16 163 42 41 q 5 302 5 215 q 6 400 5 340 l 289 400 q 293 297 289 324 q 312 257 297 271 q 487 227 343 227 q 674 258 637 227 q 694 294 689 271 q 700 378 700 317 l 700 926 "},"»":{"x_min":46.109375,"x_max":850.421875,"ha":897,"o":"m 127 486 l 278 605 l 458 385 l 243 0 l 46 112 l 200 392 l 127 486 m 511 508 l 666 626 l 850 391 l 633 0 l 432 109 l 596 398 l 511 508 "},"©":{"x_min":46,"x_max":1233,"ha":1279,"o":"m 666 940 q 1010 924 910 940 q 1155 864 1110 908 q 1199 796 1184 835 q 1222 685 1214 756 q 1233 459 1233 596 q 1216 195 1233 285 q 1160 63 1199 105 q 1022 2 1118 18 q 709 -14 926 -14 q 473 -10 604 -14 q 301 -3 343 -7 q 189 19 230 3 q 116 69 148 35 q 60 194 74 113 q 46 466 46 274 q 77 788 46 692 q 248 921 114 900 q 666 940 371 939 m 595 839 q 324 828 400 839 q 212 786 248 818 q 169 690 181 757 q 158 473 158 624 q 167 240 158 308 q 204 144 176 173 q 260 110 227 120 q 365 95 294 99 q 646 87 394 93 q 919 94 874 92 q 1003 105 964 97 q 1067 141 1040 114 q 1102 206 1093 168 q 1121 471 1121 286 q 1104 727 1121 656 q 1067 790 1095 765 q 995 824 1038 816 q 898 835 948 833 q 595 839 848 836 m 826 408 l 1017 408 q 1019 349 1019 363 q 956 208 1019 240 q 682 177 894 177 q 443 183 513 177 q 335 206 373 189 q 264 325 272 237 q 260 457 260 362 q 264 597 260 554 q 279 662 268 639 q 380 733 305 717 q 685 749 456 749 q 932 725 879 749 q 991 671 974 706 q 1009 566 1009 635 q 1008 532 1009 561 l 816 532 q 805 584 815 577 q 634 599 789 599 q 520 595 551 599 q 476 583 489 592 q 456 545 462 573 q 451 460 451 518 q 456 377 451 401 q 474 343 461 352 q 521 330 489 333 q 644 327 552 327 q 769 330 737 327 q 811 341 801 333 q 826 408 825 354 "},"˘":{"x_min":23.734375,"x_max":670.03125,"ha":694,"o":"m 23 998 l 157 998 q 201 932 173 950 q 347 899 252 899 q 474 922 430 899 q 537 998 518 945 l 670 998 q 605 854 657 910 q 351 760 519 760 q 127 823 214 760 q 23 998 41 886 "},"ò":{"x_min":37,"x_max":967,"ha":1004,"o":"m 502 674 q 752 660 669 674 q 882 613 836 647 q 949 521 931 578 q 967 341 967 464 q 961 203 967 249 q 943 121 956 157 q 800 4 907 29 q 503 -17 710 -17 q 239 -3 319 -17 q 112 48 160 9 q 52 146 67 86 q 37 349 37 206 q 43 473 37 431 q 68 551 49 516 q 194 648 105 623 q 502 674 283 673 m 504 489 q 339 470 382 489 q 295 422 308 455 q 283 324 283 389 q 293 231 283 259 q 335 189 304 203 q 503 168 381 168 q 682 197 643 168 q 721 330 721 226 q 708 425 721 395 q 664 468 696 455 q 504 489 618 489 m 357 1080 l 642 795 l 580 716 l 232 912 l 357 1080 "},"^":{"x_min":7.453125,"x_max":686.984375,"ha":694,"o":"m 241 467 l 7 467 l 199 933 l 495 933 l 686 467 l 453 467 l 347 752 l 241 467 "},"«":{"x_min":46.109375,"x_max":846.359375,"ha":893,"o":"m 226 621 l 381 501 l 298 392 l 459 106 l 261 0 l 46 390 l 226 621 m 612 602 l 763 480 l 689 385 l 846 105 l 649 0 l 434 385 l 612 602 "},"D":{"x_min":65,"x_max":1288,"ha":1334,"o":"m 65 0 l 65 926 l 732 926 q 965 923 910 926 q 1080 908 1020 920 q 1261 750 1219 879 q 1282 646 1277 702 q 1288 476 1288 590 q 1281 288 1288 352 q 1257 172 1275 225 q 1087 22 1216 50 q 958 4 1026 8 q 733 0 889 0 l 65 0 m 343 236 l 735 236 q 895 243 844 236 q 967 267 946 250 q 1000 330 990 287 q 1010 459 1010 373 q 1001 589 1010 545 q 973 655 993 632 q 906 687 950 680 q 732 695 862 695 l 343 695 l 343 236 "},"ł":{"x_min":-11,"x_max":441,"ha":431,"o":"m 93 926 l 339 926 l 339 625 l 441 693 l 441 541 l 339 474 l 339 0 l 93 0 l 93 327 l -11 260 l -11 412 l 93 480 l 93 926 "},"ÿ":{"x_min":-18.203125,"x_max":919.703125,"ha":901,"o":"m -18 657 l 251 657 l 438 179 l 647 657 l 919 657 l 569 -85 q 502 -216 518 -192 q 455 -260 487 -241 q 276 -296 398 -296 q 171 -292 197 -296 l 171 -122 q 225 -122 185 -122 q 316 -99 288 -122 q 374 0 345 -75 l 274 0 l -18 657 m 145 968 l 403 968 l 403 792 l 145 792 l 145 968 m 498 968 l 756 968 l 756 792 l 498 792 l 498 968 "},"Ł":{"x_min":-1,"x_max":1034,"ha":1034,"o":"m 79 926 l 375 926 l 375 619 l 584 754 l 584 588 l 375 453 l 375 236 l 1034 236 l 1034 0 l 79 0 l 79 274 l -1 223 l -1 388 l 79 440 l 79 926 "},"í":{"x_min":56,"x_max":432.203125,"ha":357,"o":"m 56 657 l 302 657 l 302 0 l 56 0 l 56 657 m 58 766 l 285 1086 l 432 947 l 134 698 l 58 766 "},"ˆ":{"x_min":20.34375,"x_max":674.09375,"ha":694,"o":"m 20 827 l 347 1028 l 674 827 l 636 745 l 347 848 l 58 745 l 20 827 "},"w":{"x_min":-13.5625,"x_max":1397.03125,"ha":1383,"o":"m -13 657 l 246 657 l 396 179 l 571 657 l 803 657 l 981 187 l 1134 657 l 1397 657 l 1152 0 l 819 0 l 689 386 l 557 0 l 229 0 l -13 657 "},"$":{"x_min":11,"x_max":1249,"ha":1259,"o":"m 547 1015 l 699 1015 l 699 937 q 1055 914 946 937 q 1198 819 1159 892 q 1221 681 1221 778 l 1219 640 l 974 640 q 956 703 975 688 q 905 720 939 716 q 720 728 871 723 l 699 728 l 699 573 l 715 572 q 1021 561 960 567 q 1131 536 1082 556 q 1227 443 1202 507 q 1249 295 1249 388 q 1173 49 1249 113 q 882 -14 1097 -14 q 699 -12 827 -14 l 699 -110 l 547 -110 l 547 -12 q 494 -12 515 -12 q 131 22 219 -12 q 37 100 64 48 q 11 257 11 152 q 12 321 11 268 l 258 321 q 258 304 258 308 q 268 231 260 249 q 306 207 277 214 q 509 198 348 198 q 547 196 521 198 l 547 369 q 312 374 360 371 q 205 386 263 376 q 65 461 107 401 q 23 647 23 521 q 73 851 23 790 q 150 905 103 887 q 283 930 197 923 q 486 938 371 938 q 547 937 508 938 l 547 1015 m 547 727 l 534 727 q 325 715 349 723 q 285 654 285 699 q 352 582 285 592 q 547 574 405 574 l 547 727 m 699 200 q 783 198 740 198 q 953 211 918 198 q 989 279 989 225 q 978 327 989 311 q 941 352 967 344 q 738 365 908 362 l 699 367 l 699 200 "},"\\":{"x_min":-46.109375,"x_max":896.546875,"ha":850,"o":"m -46 1126 l 130 1126 l 896 -201 l 720 -201 l -46 1126 "},"Ì":{"x_min":-99.109375,"x_max":361,"ha":426,"o":"m 65 926 l 361 926 l 361 0 l 65 0 l 65 926 m -99 1171 l 41 1359 l 327 1066 l 257 974 l -99 1171 "},"µ":{"x_min":51,"x_max":941,"ha":996,"o":"m 51 657 l 297 657 l 297 356 q 303 254 297 284 q 330 203 310 223 q 385 175 351 183 q 489 168 419 168 q 651 204 609 168 q 686 263 678 227 q 695 392 695 300 l 695 657 l 941 657 l 941 0 l 710 0 l 710 98 l 697 98 q 606 10 669 37 q 435 -17 544 -17 q 297 12 344 -17 l 297 -273 l 51 -273 l 51 657 "},"č":{"x_min":37,"x_max":937.234375,"ha":971,"o":"m 818 931 l 491 731 l 164 931 l 202 1013 l 491 910 l 780 1013 l 818 931 m 686 264 l 936 264 q 919 138 933 181 q 874 63 906 95 q 747 -1 827 14 q 473 -17 667 -17 q 246 -4 321 -17 q 121 43 170 8 q 55 139 73 77 q 37 332 37 202 q 53 511 37 451 q 114 607 70 572 q 240 659 161 645 q 486 674 319 674 q 732 659 649 674 q 862 606 815 644 q 917 528 901 575 q 937 390 933 482 l 686 390 q 637 467 680 446 q 485 489 593 489 q 333 468 376 489 q 294 422 306 455 q 283 324 283 389 q 295 231 283 261 q 338 188 307 201 q 489 168 384 168 q 637 187 597 168 q 686 264 678 207 "},"Ç":{"x_min":46,"x_max":1230,"ha":1263,"o":"m 651 -13 l 651 -75 l 754 -75 q 818 -91 802 -75 q 834 -158 834 -108 l 834 -311 q 817 -380 834 -366 q 739 -395 801 -395 l 542 -395 l 542 -277 l 658 -277 q 695 -272 688 -277 q 703 -244 703 -266 l 703 -214 q 696 -186 703 -191 q 659 -182 689 -182 l 548 -182 l 548 -12 q 343 -6 385 -9 q 203 18 256 1 q 117 66 151 34 q 58 178 71 107 q 46 456 46 249 q 52 688 46 617 q 75 799 58 760 q 232 913 114 887 q 708 940 350 940 q 968 931 887 940 q 1098 901 1050 923 q 1187 813 1161 871 q 1213 640 1213 754 q 1212 594 1213 634 l 929 594 q 924 655 928 640 q 909 681 920 671 q 827 702 893 696 q 627 709 761 709 q 444 703 495 709 q 372 680 393 697 q 337 611 347 660 q 328 458 328 563 q 336 309 328 352 q 370 247 345 266 q 446 223 394 229 q 630 217 497 217 q 846 222 792 217 q 918 246 899 227 q 945 357 943 269 l 1227 357 q 1230 269 1230 286 q 1164 58 1230 117 q 862 -12 1090 -7 q 756 -13 833 -13 q 651 -13 721 -13 "},"’":{"x_min":56,"x_max":390,"ha":464,"o":"m 94 926 l 390 926 l 390 655 q 382 527 390 569 q 354 458 374 484 q 283 413 327 424 q 126 403 238 403 q 56 403 95 403 l 56 549 l 76 549 l 100 549 q 155 567 138 549 q 172 625 172 585 l 172 651 l 94 651 l 94 926 "},"-":{"x_min":0.0625,"x_max":586,"ha":586,"o":"m 2 426 l 586 426 l 586 239 l 0 239 l 2 426 "},"Q":{"x_min":46,"x_max":1429.578125,"ha":1382,"o":"m 1429 187 l 1323 -9 l 1232 54 q 1074 -1 1173 10 q 672 -14 975 -14 q 269 0 382 -14 q 71 154 107 22 q 46 462 46 245 q 71 770 46 679 q 269 924 107 902 q 682 939 382 939 q 1094 924 981 939 q 1292 770 1256 902 q 1312 650 1307 719 q 1318 456 1318 581 q 1310 248 1318 320 l 1429 187 m 748 589 l 1035 407 q 1036 437 1036 427 q 1029 583 1036 536 q 1004 654 1022 630 q 930 690 982 683 q 682 698 878 698 q 413 686 458 698 q 344 625 360 672 q 328 437 328 578 q 336 316 328 353 q 370 260 345 279 q 454 232 397 238 q 695 227 511 227 q 933 236 873 227 l 635 394 l 748 589 "},"M":{"x_min":65,"x_max":1636,"ha":1700,"o":"m 65 926 l 576 926 l 851 324 l 1127 926 l 1636 926 l 1636 0 l 1357 0 l 1364 693 l 1318 693 l 969 0 l 735 0 l 385 693 l 336 693 l 343 0 l 65 0 l 65 926 "},"C":{"x_min":46,"x_max":1230,"ha":1263,"o":"m 945 357 l 1227 357 q 1230 269 1230 289 q 1198 102 1230 162 q 1060 10 1162 34 q 706 -14 958 -14 q 329 -3 442 -14 q 160 35 217 6 q 84 106 109 61 q 52 229 59 151 q 46 457 46 292 q 52 689 46 617 q 75 799 58 760 q 232 913 114 887 q 708 940 350 940 q 968 931 887 940 q 1098 901 1050 923 q 1187 812 1161 871 q 1213 640 1213 754 q 1212 594 1213 634 l 930 594 q 924 655 928 640 q 909 681 920 671 q 827 702 893 696 q 627 709 761 709 q 444 703 495 709 q 372 680 393 697 q 337 612 347 660 q 328 459 328 564 q 336 311 328 354 q 370 249 345 268 q 446 225 394 231 q 629 219 498 219 q 845 224 792 219 q 918 247 899 229 q 945 357 944 271 "},"œ":{"x_min":37,"x_max":1603,"ha":1639,"o":"m 840 581 l 859 581 q 972 654 899 634 q 1202 674 1045 674 q 1399 662 1332 674 q 1560 573 1518 640 q 1603 342 1603 507 q 1601 275 1603 325 l 965 275 q 995 167 967 189 q 1169 140 1030 140 q 1335 163 1305 140 q 1357 210 1347 173 l 1597 210 q 1534 56 1587 102 q 1403 0 1487 15 q 1154 -17 1318 -17 q 959 3 1029 -17 q 841 75 889 24 l 827 75 q 712 3 784 23 q 499 -17 640 -17 q 251 -3 334 -17 q 119 46 167 10 q 54 141 72 81 q 37 324 37 200 q 44 462 37 412 q 71 551 51 512 q 189 648 106 623 q 477 674 273 674 q 714 653 635 674 q 840 581 794 633 m 497 489 q 321 460 360 489 q 283 329 283 432 q 291 235 283 262 q 328 193 300 209 q 509 168 375 168 q 681 197 642 168 q 720 330 720 227 q 708 425 720 395 q 665 469 696 455 q 497 489 622 489 m 1356 409 l 1355 425 q 1347 476 1354 460 q 1318 503 1339 493 q 1173 522 1281 522 q 1007 502 1043 522 q 965 409 971 482 l 1356 409 "},"!":{"x_min":76,"x_max":387,"ha":463,"o":"m 93 926 l 370 926 l 370 397 l 93 397 l 93 926 m 76 290 l 387 290 l 387 0 l 76 0 l 76 290 "},"ç":{"x_min":37,"x_max":937.171875,"ha":971,"o":"m 494 -16 l 494 -74 l 594 -74 q 656 -89 641 -74 q 672 -153 672 -105 l 672 -288 q 656 -355 672 -341 q 580 -369 641 -369 l 389 -369 l 389 -269 l 506 -269 q 542 -262 535 -269 q 550 -227 550 -255 l 550 -207 q 543 -174 550 -180 q 506 -169 537 -169 l 394 -169 l 394 -15 q 152 25 225 -10 q 61 123 85 58 q 37 333 37 187 q 53 512 37 452 q 114 607 70 572 q 240 659 161 645 q 485 674 319 674 q 732 659 648 674 q 862 606 815 644 q 918 529 902 575 q 937 390 933 482 l 686 390 q 659 453 682 434 q 484 489 616 489 q 333 468 377 489 q 294 422 306 455 q 283 324 283 389 q 295 232 283 262 q 338 189 307 202 q 489 169 384 169 q 637 188 596 169 q 686 264 677 207 l 936 264 q 908 109 933 160 q 826 26 880 54 q 678 -10 772 -2 q 494 -16 621 -15 "},"È":{"x_min":65,"x_max":1096,"ha":1119,"o":"m 65 926 l 1091 926 l 1091 708 l 343 708 l 343 574 l 1053 574 l 1053 371 l 343 371 l 343 222 l 1096 222 l 1096 0 l 65 0 l 65 926 m 281 1126 l 390 1342 l 734 1096 l 678 990 l 281 1126 "},"{":{"x_min":37,"x_max":507,"ha":545,"o":"m 507 956 l 507 783 q 393 751 422 781 q 364 636 364 721 q 360 536 363 561 q 346 494 357 512 q 249 446 321 455 l 249 433 q 341 393 319 423 q 358 347 354 375 q 364 236 362 320 q 395 122 366 151 q 507 88 423 92 l 507 -86 q 303 -78 360 -86 q 208 -44 246 -70 q 140 51 156 -7 q 117 286 123 110 q 99 340 115 326 q 37 355 82 354 l 37 524 q 108 543 95 528 q 121 627 121 558 q 133 785 121 730 q 174 876 145 840 q 278 940 212 925 q 507 956 344 956 "},"X":{"x_min":-9.5,"x_max":1397.703125,"ha":1389,"o":"m 26 926 l 412 926 l 697 600 l 985 926 l 1376 926 l 930 467 l 1397 0 l 1000 0 l 697 332 l 396 0 l -9 0 l 463 467 l 26 926 "},"ô":{"x_min":37,"x_max":967,"ha":1004,"o":"m 502 674 q 752 660 669 674 q 882 613 836 647 q 949 521 931 578 q 967 341 967 464 q 961 203 967 249 q 943 121 956 157 q 800 4 907 29 q 503 -17 710 -17 q 239 -3 319 -17 q 112 48 160 9 q 52 146 67 86 q 37 349 37 206 q 43 473 37 431 q 68 551 49 516 q 194 648 105 623 q 502 674 283 673 m 504 489 q 339 470 382 489 q 295 422 308 455 q 283 324 283 389 q 293 231 283 259 q 335 189 304 203 q 503 168 381 168 q 682 197 643 168 q 721 330 721 226 q 708 425 721 395 q 664 468 696 455 q 504 489 618 489 m 175 827 l 502 1028 l 829 827 l 791 745 l 502 848 l 213 745 l 175 827 "},"¼":{"x_min":36.578125,"x_max":1855,"ha":1948,"o":"m 256 926 l 545 926 l 545 370 l 356 370 l 356 773 l 317 773 l 142 634 l 36 750 l 256 926 m 1186 938 l 1294 850 l 595 -12 l 486 75 l 1186 938 m 1855 235 l 1855 101 l 1742 101 l 1742 0 l 1562 0 l 1562 101 l 1097 101 l 1097 318 l 1446 555 l 1742 555 l 1742 235 l 1855 235 m 1562 235 l 1562 418 l 1533 418 l 1267 247 l 1267 235 l 1562 235 "},"#":{"x_min":96.296875,"x_max":1163.0625,"ha":1259,"o":"m 379 926 l 556 926 l 524 701 l 802 701 l 833 926 l 1009 926 l 977 701 l 1163 701 l 1142 553 l 957 553 l 931 372 l 1117 372 l 1096 224 l 910 224 l 879 0 l 703 0 l 735 224 l 457 224 l 425 0 l 250 0 l 281 224 l 96 224 l 117 372 l 302 372 l 327 553 l 142 553 l 163 701 l 348 701 l 379 926 m 503 553 l 478 372 l 756 372 l 781 553 l 503 553 "},"đ":{"x_min":37,"x_max":1023,"ha":1032,"o":"m 716 926 l 962 926 l 962 842 l 1023 842 l 1023 732 l 962 732 l 962 0 l 731 0 l 731 86 l 716 86 q 659 22 690 41 q 426 -17 592 -17 q 222 -1 293 -17 q 108 52 150 14 q 52 149 68 89 q 37 327 37 208 q 74 549 37 476 q 209 646 112 622 q 429 664 281 664 q 615 642 559 664 q 705 559 670 621 l 716 559 l 716 732 l 421 732 l 421 842 l 716 842 l 716 926 m 510 487 q 323 459 364 487 q 283 334 283 431 q 295 229 283 261 q 340 185 307 198 q 494 168 384 168 q 676 196 631 168 q 707 239 698 209 q 717 326 717 269 q 704 424 717 393 q 661 468 692 455 q 510 487 616 487 "},"Ê":{"x_min":65,"x_max":1096,"ha":1119,"o":"m 65 926 l 1091 926 l 1091 708 l 343 708 l 343 574 l 1053 574 l 1053 371 l 343 371 l 343 222 l 1096 222 l 1096 0 l 65 0 l 65 926 m 242 1127 l 587 1314 l 933 1127 l 894 1036 l 587 1116 l 280 1036 l 242 1127 "},")":{"x_min":46,"x_max":498,"ha":545,"o":"m 46 956 q 102 956 89 956 q 338 937 277 956 q 484 754 456 898 q 498 452 498 681 q 491 182 498 266 q 464 50 484 99 q 377 -50 435 -20 q 202 -84 318 -81 q 46 -86 196 -85 l 46 90 q 88 90 77 91 q 199 101 170 90 q 236 150 227 112 q 246 427 246 187 q 241 676 246 615 q 220 755 236 737 q 178 777 204 773 q 46 782 153 781 l 46 956 "},"Å":{"x_min":-23.0625,"x_max":1390.25,"ha":1367,"o":"m 1070 0 l 990 157 l 378 157 l 299 0 l -23 0 l 467 926 l 906 926 l 1390 0 l 1070 0 m 891 360 l 713 711 l 657 711 l 478 360 l 891 360 m 704 1405 q 893 1376 845 1405 q 934 1321 924 1358 q 944 1188 944 1284 q 929 1052 944 1084 q 856 995 910 1010 q 662 981 802 981 q 480 1004 526 981 q 434 1061 445 1023 q 423 1201 423 1099 q 441 1340 423 1307 q 516 1391 462 1378 q 704 1405 569 1405 m 674 1288 q 588 1269 609 1288 q 567 1195 567 1251 q 585 1114 567 1130 q 680 1099 603 1099 q 778 1115 758 1099 q 798 1194 798 1131 q 791 1252 798 1234 q 765 1278 784 1269 q 674 1288 745 1288 "},"ø":{"x_min":-1,"x_max":1025,"ha":1029,"o":"m 1025 689 l 1025 572 l 957 533 q 975 460 971 497 q 980 339 980 423 q 974 203 980 248 q 956 121 969 157 q 813 4 920 29 q 511 -17 723 -17 q 252 -3 330 -17 q 126 48 174 9 l -1 -26 l -1 91 l 69 132 q 53 211 57 169 q 49 338 49 253 q 55 472 49 429 q 80 551 61 514 q 206 648 116 623 q 515 674 296 674 q 764 661 683 674 q 895 614 845 648 l 1025 689 m 360 185 q 515 168 418 168 q 695 197 656 168 q 734 330 734 226 q 729 400 734 368 l 360 185 m 657 475 q 518 489 599 489 q 351 470 395 489 q 307 422 320 455 q 295 322 295 389 q 297 265 295 296 l 657 475 "},"â":{"x_min":34,"x_max":921,"ha":972,"o":"m 305 451 l 60 451 q 93 567 65 527 q 229 652 137 630 q 543 675 322 675 q 764 662 705 675 q 864 609 823 650 q 909 530 897 576 q 921 395 921 485 l 921 0 l 685 0 l 685 90 l 672 90 q 586 6 645 32 q 499 -11 555 -6 q 320 -17 443 -17 q 167 -4 221 -17 q 81 38 114 8 q 34 187 34 84 q 90 352 34 301 q 208 404 135 392 q 478 417 281 417 q 599 407 563 417 q 664 366 635 397 l 675 366 l 675 400 q 646 496 675 477 q 506 516 618 516 q 342 505 373 516 q 305 451 311 495 m 469 277 q 315 262 345 277 q 280 208 280 244 q 315 154 280 168 q 449 140 350 140 q 623 155 577 140 q 670 214 670 171 q 630 268 670 253 q 469 277 611 275 m 168 827 l 495 1028 l 822 827 l 784 745 l 495 848 l 206 745 l 168 827 "},"}":{"x_min":39,"x_max":508,"ha":545,"o":"m 39 956 q 193 953 149 956 q 281 935 237 949 q 391 844 360 912 q 423 627 423 776 q 437 543 424 558 q 508 524 449 528 l 508 355 q 441 335 456 354 q 430 308 432 323 q 424 186 428 293 q 407 59 421 107 q 362 -21 392 11 q 263 -74 324 -62 q 39 -86 203 -86 l 39 88 q 150 122 121 92 q 181 236 179 151 q 186 347 182 320 q 203 393 190 375 q 296 433 225 423 l 296 446 q 199 494 224 455 q 184 536 187 512 q 181 636 182 561 q 152 751 181 721 q 39 783 123 781 l 39 956 "},"‰":{"x_min":28,"x_max":2626,"ha":2654,"o":"m 395 940 q 702 903 626 940 q 750 840 739 885 q 761 663 761 796 q 748 478 761 522 q 688 417 735 435 q 394 387 609 387 q 101 416 180 387 q 41 481 55 434 q 28 674 28 528 q 44 854 28 811 q 119 916 61 898 q 395 940 197 939 m 392 796 q 228 781 265 796 q 199 746 207 772 q 191 665 191 720 q 200 576 191 601 q 236 542 210 550 q 391 530 273 530 q 562 543 513 530 q 591 584 585 550 q 598 663 598 614 q 587 759 598 727 q 568 780 581 774 q 511 789 554 785 q 392 796 454 796 m 1361 947 l 1456 838 l 502 -21 l 404 87 l 1361 947 m 1453 543 q 1768 507 1680 543 q 1822 446 1810 490 q 1834 264 1834 402 q 1820 75 1834 117 q 1752 15 1806 34 q 1452 -14 1663 -14 q 1170 17 1251 -14 q 1111 82 1124 36 q 1099 275 1099 128 q 1114 455 1099 411 q 1187 517 1130 498 q 1453 543 1267 542 m 1454 397 q 1299 383 1337 397 q 1270 350 1278 376 q 1262 267 1262 324 q 1271 175 1262 200 q 1307 142 1280 150 q 1452 132 1345 132 q 1633 146 1586 132 q 1662 178 1654 151 q 1671 264 1671 206 q 1661 353 1671 328 q 1626 384 1651 378 q 1454 397 1575 397 m 2245 543 q 2560 507 2472 543 q 2614 446 2602 490 q 2626 264 2626 402 q 2622 135 2626 173 q 2610 72 2619 97 q 2567 25 2598 40 q 2466 0 2537 9 q 2244 -14 2372 -14 q 1961 17 2043 -14 q 1902 82 1915 36 q 1890 275 1890 128 q 1905 455 1890 411 q 1978 517 1921 498 q 2245 543 2058 542 m 2245 397 q 2090 383 2128 397 q 2061 350 2069 376 q 2053 267 2053 324 q 2062 175 2053 200 q 2098 142 2071 150 q 2244 132 2136 132 q 2425 146 2377 132 q 2454 178 2445 151 q 2463 264 2463 206 q 2453 353 2463 328 q 2418 384 2443 379 q 2245 397 2368 397 "},"Ä":{"x_min":-23.0625,"x_max":1390.25,"ha":1367,"o":"m 1070 0 l 990 157 l 378 157 l 299 0 l -23 0 l 467 926 l 906 926 l 1390 0 l 1070 0 m 891 360 l 713 711 l 657 711 l 478 360 l 891 360 m 341 1267 l 610 1267 l 610 1067 l 341 1067 l 341 1267 m 757 1267 l 1026 1267 l 1026 1067 l 757 1067 l 757 1267 "},"¸":{"x_min":251.953125,"x_max":534,"ha":694,"o":"m 256 0 l 356 0 l 356 -74 l 456 -74 q 518 -89 503 -74 q 534 -153 534 -105 l 534 -288 q 518 -355 534 -341 q 442 -369 503 -369 l 251 -369 l 251 -269 l 368 -269 q 404 -262 397 -269 q 412 -227 412 -255 l 412 -207 q 405 -174 412 -180 q 368 -169 399 -169 l 256 -169 l 256 0 "},"a":{"x_min":34,"x_max":921,"ha":972,"o":"m 305 451 l 60 451 q 93 567 65 527 q 229 652 137 630 q 543 675 322 675 q 764 662 705 675 q 864 609 823 650 q 909 530 897 576 q 921 395 921 485 l 921 0 l 685 0 l 685 90 l 672 90 q 586 6 645 32 q 499 -11 555 -6 q 320 -17 443 -17 q 167 -4 221 -17 q 81 38 114 8 q 34 187 34 84 q 90 352 34 301 q 208 404 135 392 q 478 417 281 417 q 599 407 563 417 q 664 366 635 397 l 675 366 l 675 400 q 646 496 675 477 q 506 516 618 516 q 342 505 373 516 q 305 451 311 495 m 469 277 q 315 262 345 277 q 280 208 280 244 q 315 154 280 168 q 449 140 350 140 q 623 155 577 140 q 670 214 670 171 q 630 268 670 253 q 469 277 611 275 "},"—":{"x_min":46,"x_max":1496,"ha":1542,"o":"m 46 428 l 1496 428 l 1496 239 l 46 239 l 46 428 "},"=":{"x_min":176,"x_max":1083,"ha":1259,"o":"m 176 694 l 1083 694 l 1083 527 l 176 527 l 176 694 m 176 417 l 1083 417 l 1083 250 l 176 250 l 176 417 "},"N":{"x_min":65,"x_max":1354,"ha":1418,"o":"m 65 926 l 559 926 l 1044 235 l 1073 235 l 1067 926 l 1354 926 l 1354 0 l 863 0 l 376 691 l 345 691 l 351 0 l 65 0 l 65 926 "},"˚":{"x_min":114,"x_max":581,"ha":694,"o":"m 415 1134 q 551 1099 522 1134 q 581 941 581 1065 q 570 797 581 824 q 478 740 550 748 q 350 736 456 737 l 268 736 q 189 743 216 736 q 145 767 162 750 q 120 824 126 789 q 114 948 114 859 q 119 1048 114 1017 q 143 1098 125 1078 q 206 1127 164 1122 q 415 1134 249 1133 m 354 1009 q 260 998 276 1009 q 240 935 240 983 q 257 873 240 885 q 344 861 275 861 q 435 874 415 861 q 455 935 455 887 q 436 995 455 981 q 354 1009 417 1009 "},"ú":{"x_min":51,"x_max":941,"ha":996,"o":"m 941 0 l 710 0 l 710 98 l 697 98 q 604 9 667 35 q 415 -17 540 -17 q 234 1 301 -17 q 123 65 167 20 q 64 167 78 111 q 51 356 51 222 l 51 657 l 297 657 l 297 356 q 303 254 297 284 q 330 203 310 223 q 385 175 351 183 q 489 168 419 168 q 651 204 609 168 q 686 263 678 227 q 695 392 695 300 l 695 657 l 941 657 l 941 0 m 352 797 l 639 1082 l 763 913 l 416 714 l 352 797 "},"2":{"x_min":74.703125,"x_max":1193,"ha":1259,"o":"m 348 581 l 74 581 q 83 751 74 692 q 177 892 99 854 q 321 927 228 917 q 602 937 414 937 q 964 930 885 937 q 1089 897 1043 924 q 1158 812 1139 867 q 1178 644 1178 757 q 1168 515 1178 562 q 1137 436 1159 468 q 1057 374 1107 391 q 853 337 973 344 q 478 312 563 320 q 375 292 394 304 q 354 267 358 280 q 347 213 349 254 l 1193 213 l 1193 0 l 88 0 q 86 105 86 54 q 96 333 86 265 q 245 496 116 464 q 337 513 296 508 q 580 533 379 518 q 812 552 775 548 q 873 565 848 556 q 905 588 897 573 q 914 641 914 603 q 904 698 914 681 q 871 723 895 716 q 659 734 842 734 q 442 728 503 734 q 365 710 380 723 q 351 678 354 698 q 348 581 348 657 "},"ü":{"x_min":51,"x_max":941,"ha":996,"o":"m 941 0 l 710 0 l 710 98 l 697 98 q 604 9 667 35 q 415 -17 540 -17 q 234 1 301 -17 q 123 65 167 20 q 64 167 78 111 q 51 356 51 222 l 51 657 l 297 657 l 297 356 q 303 254 297 284 q 330 203 310 223 q 385 175 351 183 q 489 168 419 168 q 651 204 609 168 q 686 263 678 227 q 695 392 695 300 l 695 657 l 941 657 l 941 0 m 192 968 l 450 968 l 450 792 l 192 792 l 192 968 m 545 968 l 803 968 l 803 792 l 545 792 l 545 968 "},"¯":{"x_min":0,"x_max":694,"ha":694,"o":"m 0 1148 l 694 1148 l 694 980 l 0 980 l 0 1148 "},"Z":{"x_min":28,"x_max":1174,"ha":1202,"o":"m 43 926 l 1154 926 l 1154 713 l 475 222 l 1174 231 l 1174 0 l 28 0 l 28 216 l 697 703 l 43 694 l 43 926 "},"u":{"x_min":51,"x_max":941,"ha":996,"o":"m 941 0 l 710 0 l 710 98 l 697 98 q 604 9 667 35 q 415 -17 540 -17 q 234 1 301 -17 q 123 65 167 20 q 64 167 78 111 q 51 356 51 222 l 51 657 l 297 657 l 297 356 q 303 254 297 284 q 330 203 310 223 q 385 175 351 183 q 489 168 419 168 q 651 204 609 168 q 686 263 678 227 q 695 392 695 300 l 695 657 l 941 657 l 941 0 "},"":{"x_min":0,"x_max":905,"ha":961,"o":"m 0 482 l 0 657 l 127 657 q 146 801 131 759 q 203 874 160 841 q 299 920 245 908 q 549 942 384 942 q 875 928 724 942 l 905 925 l 905 0 l 659 0 l 659 777 q 601 778 626 778 q 418 757 462 778 q 383 726 392 746 q 373 657 375 707 l 595 657 l 595 482 l 373 482 l 373 0 l 127 0 l 127 482 l 0 482 "},"˜":{"x_min":27.8125,"x_max":667.3125,"ha":694,"o":"m 544 977 l 667 977 q 642 826 666 869 q 543 764 608 764 q 357 811 484 764 q 200 857 235 857 q 163 839 174 857 q 150 782 151 822 l 27 782 q 57 929 29 884 q 172 995 97 995 q 235 986 204 995 q 366 940 267 977 q 505 902 473 902 q 541 929 533 902 q 544 977 543 941 "},"Ó":{"x_min":46,"x_max":1318,"ha":1364,"o":"m 682 939 q 1094 924 981 939 q 1292 770 1256 902 q 1318 462 1318 679 q 1292 154 1318 245 q 1094 0 1256 22 q 684 -14 981 -14 q 269 0 382 -14 q 71 154 107 22 q 46 468 46 245 q 71 770 46 679 q 269 924 107 902 q 682 939 381 939 m 682 698 q 412 686 458 698 q 344 625 360 672 q 328 438 328 578 q 336 315 328 353 q 439 235 353 245 q 684 227 502 227 q 910 233 854 227 q 993 260 966 239 q 1027 316 1018 279 q 1036 437 1036 353 q 1029 583 1036 536 q 1004 653 1022 630 q 930 690 982 683 q 682 698 879 698 m 893 1344 l 1001 1127 l 606 989 l 548 1098 l 893 1344 "},"k":{"x_min":56,"x_max":954.40625,"ha":926,"o":"m 56 926 l 302 926 l 302 441 l 354 441 l 580 657 l 909 657 l 568 349 l 954 0 l 628 0 l 364 263 l 302 263 l 302 0 l 56 0 l 56 926 "},"ˇ":{"x_min":20.34375,"x_max":674.09375,"ha":694,"o":"m 674 931 l 347 731 l 20 931 l 58 1013 l 347 910 l 636 1013 l 674 931 "},"Ù":{"x_min":60,"x_max":1263,"ha":1324,"o":"m 60 926 l 342 926 l 342 500 q 352 315 344 353 q 422 243 363 260 q 662 227 481 227 q 865 235 808 227 q 945 269 921 243 q 967 311 961 286 q 977 398 974 336 q 981 500 981 460 l 981 926 l 1263 926 l 1263 500 q 1248 209 1258 278 q 1137 38 1231 93 q 986 -3 1083 7 q 665 -14 888 -14 q 407 -7 498 -14 q 249 13 316 -1 q 75 193 100 49 q 63 292 66 248 q 60 500 61 337 l 60 926 m 369 1126 l 478 1342 l 822 1096 l 766 990 l 369 1126 "},"Ÿ":{"x_min":-28,"x_max":1301.59375,"ha":1274,"o":"m -28 926 l 342 926 l 644 554 l 934 926 l 1301 926 l 795 327 l 795 0 l 503 0 l 503 327 l -28 926 m 295 1267 l 564 1267 l 564 1067 l 295 1067 l 295 1267 m 711 1267 l 980 1267 l 980 1067 l 711 1067 l 711 1267 "},"¢":{"x_min":75,"x_max":1035,"ha":1111,"o":"m 631 77 l 631 -37 l 479 -37 l 479 78 q 324 84 361 80 q 135 144 188 96 q 86 238 98 178 q 75 463 75 298 q 80 643 75 586 q 99 730 85 700 q 179 809 124 784 q 345 842 234 834 q 479 847 385 845 l 479 963 l 631 963 l 631 848 l 640 848 q 829 841 777 847 q 921 818 882 836 q 1000 744 976 793 q 1024 602 1024 694 q 1022 547 1024 590 l 770 547 q 757 616 770 601 q 734 628 748 626 q 653 631 721 631 l 631 631 l 631 299 q 730 303 704 299 q 767 317 757 306 q 776 336 774 325 q 780 399 778 348 l 1033 399 q 1035 319 1035 351 q 1008 174 1035 223 q 919 104 982 126 q 631 77 841 78 m 479 631 q 396 628 415 630 q 364 619 377 626 q 336 571 344 607 q 329 453 329 535 q 335 353 329 384 q 360 312 342 323 q 392 301 373 303 q 479 299 410 299 l 479 631 "},"ß":{"x_min":56,"x_max":1011,"ha":1048,"o":"m 56 0 l 56 613 q 71 771 56 719 q 132 862 87 822 q 267 927 187 911 q 541 943 348 943 q 735 933 672 943 q 839 899 799 924 q 929 725 929 844 q 896 608 929 647 q 782 551 863 569 q 878 535 846 545 q 939 504 911 525 q 1011 298 1011 447 q 933 67 1011 142 q 826 6 889 25 q 668 -13 763 -13 q 396 83 459 -13 q 361 256 362 134 l 565 256 q 574 199 567 213 q 657 171 590 171 q 742 201 720 171 q 765 317 765 231 q 752 414 765 382 q 710 462 739 447 q 565 477 678 477 l 418 477 l 418 639 l 531 639 q 629 641 611 640 q 660 648 647 643 q 688 704 688 660 q 654 759 688 746 q 512 773 620 773 q 386 762 429 773 q 323 725 342 751 q 302 619 302 697 l 302 0 l 56 0 "},"Ş":{"x_min":32.171875,"x_max":1166,"ha":1198,"o":"m 616 -13 l 616 -75 l 720 -75 q 784 -91 768 -75 q 800 -158 800 -108 l 800 -311 q 783 -380 800 -366 q 705 -395 767 -395 l 508 -395 l 508 -277 l 624 -277 q 661 -272 654 -277 q 669 -244 669 -266 l 669 -214 q 662 -186 669 -191 q 624 -182 655 -182 l 513 -182 l 513 -13 q 252 0 335 -11 q 124 35 170 9 q 49 119 67 68 q 32 307 32 171 l 305 307 q 332 218 304 238 q 385 202 353 205 q 589 199 418 200 q 804 201 768 199 q 861 211 840 203 q 893 281 893 224 q 870 337 893 323 q 781 351 848 351 q 559 360 725 352 q 333 370 379 369 q 177 389 232 373 q 92 440 122 405 q 40 640 40 500 q 99 861 40 797 q 239 926 145 912 q 622 940 333 940 q 909 928 826 940 q 1084 857 1037 910 q 1132 678 1132 803 q 1131 635 1132 665 l 858 635 q 852 687 856 673 q 831 711 847 702 q 767 724 813 721 q 571 728 721 728 q 352 716 391 728 q 313 654 313 705 q 352 594 313 605 q 652 578 384 586 q 952 562 877 571 q 1072 526 1028 552 q 1144 442 1123 496 q 1166 290 1166 389 q 1130 95 1166 159 q 1057 25 1104 49 q 924 -5 1009 1 q 721 -12 877 -10 l 616 -13 "},"é":{"x_min":37,"x_max":926,"ha":963,"o":"m 676 210 l 920 210 q 855 56 910 102 q 721 -1 808 14 q 461 -17 634 -17 q 241 -3 317 -17 q 119 44 164 10 q 54 140 72 80 q 37 324 37 200 q 43 465 37 418 q 69 550 50 512 q 211 652 108 628 q 485 673 300 673 q 717 661 650 673 q 881 572 836 641 q 926 341 926 503 q 925 275 926 325 l 282 275 q 289 203 282 224 q 314 167 295 181 q 480 140 351 140 q 603 146 562 140 q 659 167 644 152 q 676 210 671 180 m 679 409 q 674 462 678 447 q 659 488 670 476 q 489 521 627 521 q 325 499 365 521 q 282 409 285 477 l 679 409 m 344 797 l 631 1082 l 755 913 l 408 714 l 344 797 "},"s":{"x_min":34.59375,"x_max":941,"ha":977,"o":"m 34 209 l 284 209 q 331 150 288 166 q 489 135 374 135 q 652 147 609 135 q 695 196 695 160 q 653 242 695 230 q 444 249 634 247 q 225 255 267 249 q 69 330 110 271 q 39 451 39 375 q 146 640 39 596 q 492 674 226 674 q 736 661 660 674 q 854 613 812 648 q 891 561 880 591 q 907 471 902 530 l 657 471 q 640 502 650 495 q 485 522 609 522 q 327 510 370 522 q 285 468 285 498 q 343 424 285 428 q 678 418 390 420 q 878 371 816 418 q 941 213 941 326 q 916 92 941 139 q 839 23 892 46 q 472 -17 753 -17 q 214 -3 292 -17 q 92 51 136 10 q 34 209 36 101 "},"B":{"x_min":65,"x_max":1229,"ha":1261,"o":"m 65 0 l 65 926 l 730 926 q 983 922 943 925 q 1116 890 1073 917 q 1176 816 1158 864 q 1194 685 1194 768 q 1166 538 1194 585 q 1069 471 1139 491 q 1160 440 1131 460 q 1229 249 1229 394 q 1193 81 1229 135 q 1129 27 1169 44 q 1014 4 1088 10 q 732 0 966 1 l 65 0 m 334 561 l 731 561 q 887 571 862 561 q 921 637 921 584 q 880 703 921 692 q 731 708 865 707 l 334 708 l 334 561 m 334 222 l 732 222 q 880 224 857 222 q 919 231 903 225 q 956 302 956 245 q 913 371 956 361 q 732 376 898 375 l 334 376 l 334 222 "},"…":{"x_min":79,"x_max":1282,"ha":1361,"o":"m 79 246 l 375 246 l 375 0 l 79 0 l 79 246 m 532 246 l 828 246 l 828 0 l 532 0 l 532 246 m 986 246 l 1282 246 l 1282 0 l 986 0 l 986 246 "},"?":{"x_min":18.09375,"x_max":957,"ha":980,"o":"m 261 595 l 18 595 q 18 643 18 632 q 25 764 18 721 q 52 835 33 807 q 122 894 79 873 q 241 925 166 914 q 517 940 346 940 q 862 895 778 940 q 935 814 914 866 q 957 658 957 761 q 946 539 957 583 q 911 467 935 495 q 835 418 883 433 q 637 377 788 402 q 569 357 582 367 q 555 313 556 347 l 313 313 q 312 348 312 341 q 349 503 312 461 q 507 563 387 544 q 674 598 636 583 q 717 667 717 613 q 666 737 717 725 q 495 748 628 748 q 329 741 366 748 q 264 673 269 731 q 262 615 262 655 q 261 595 262 609 m 288 246 l 588 246 l 588 0 l 288 0 l 288 246 "},"H":{"x_min":65,"x_max":1295,"ha":1359,"o":"m 65 926 l 361 926 l 361 595 l 999 595 l 999 926 l 1295 926 l 1295 0 l 999 0 l 999 336 l 361 336 l 361 0 l 65 0 l 65 926 "},"î":{"x_min":-55.890625,"x_max":413.21875,"ha":357,"o":"m 56 657 l 302 657 l 302 0 l 56 0 l 56 657 m 178 848 l -9 749 l -55 827 l 178 1027 l 413 827 l 366 749 l 178 848 "},"c":{"x_min":37,"x_max":937.234375,"ha":971,"o":"m 686 264 l 936 264 q 919 138 933 181 q 874 63 906 95 q 747 -1 827 14 q 473 -17 667 -17 q 246 -4 321 -17 q 121 43 170 8 q 55 139 73 77 q 37 332 37 202 q 53 511 37 451 q 114 607 70 572 q 240 659 161 645 q 486 674 319 674 q 732 659 649 674 q 862 606 815 644 q 917 528 901 575 q 937 390 933 482 l 686 390 q 637 467 680 446 q 485 489 593 489 q 333 468 376 489 q 294 422 306 455 q 283 324 283 389 q 295 231 283 261 q 338 188 307 201 q 489 168 384 168 q 637 187 597 168 q 686 264 678 207 "},"¶":{"x_min":178,"x_max":1067,"ha":1259,"o":"m 1067 1069 l 1067 -125 l 899 -125 l 899 935 l 836 935 l 836 -125 l 668 -125 l 668 492 l 622 492 q 359 499 412 492 q 266 534 308 506 q 205 603 224 563 q 178 782 178 664 q 195 933 178 877 q 253 1019 213 989 q 348 1059 296 1052 q 622 1069 399 1066 l 1067 1069 "},"•":{"x_min":272,"x_max":657,"ha":926,"o":"m 467 663 q 600 606 543 663 q 657 470 657 550 q 600 334 657 390 q 464 278 544 278 q 328 334 384 278 q 272 469 272 390 q 328 606 272 551 q 467 663 385 663 "},"¥":{"x_min":51.03125,"x_max":1208.28125,"ha":1259,"o":"m 1007 645 l 1152 645 l 1152 512 l 913 512 l 836 405 l 1152 405 l 1152 272 l 782 272 l 782 0 l 500 0 l 500 272 l 108 272 l 108 405 l 442 405 l 361 512 l 108 512 l 108 645 l 262 645 l 51 926 l 391 926 l 636 554 l 870 926 l 1208 926 l 1007 645 "},"(":{"x_min":46,"x_max":498,"ha":545,"o":"m 498 956 l 498 782 q 457 782 467 782 q 350 773 381 783 q 310 733 320 762 q 301 675 302 712 q 298 427 300 639 q 303 175 300 213 q 322 117 306 137 q 356 96 336 99 q 498 90 377 93 l 498 -86 q 448 -86 460 -86 q 203 -66 265 -87 q 58 124 84 -25 q 46 452 46 198 q 53 699 46 620 q 81 826 60 779 q 167 921 110 893 q 337 954 224 950 q 498 956 349 955 "},"U":{"x_min":60,"x_max":1263,"ha":1324,"o":"m 60 926 l 342 926 l 342 500 q 352 315 344 353 q 422 243 363 260 q 662 227 481 227 q 865 235 808 227 q 945 269 921 243 q 967 311 961 286 q 977 398 974 336 q 981 500 981 460 l 981 926 l 1263 926 l 1263 500 q 1248 209 1258 278 q 1137 38 1231 93 q 986 -3 1083 7 q 665 -14 888 -14 q 407 -7 498 -14 q 249 13 316 -1 q 75 193 100 49 q 63 292 66 248 q 60 500 61 337 l 60 926 "},"◊":{"x_min":102.40625,"x_max":823.96875,"ha":926,"o":"m 463 962 l 823 463 l 463 -35 l 102 463 l 463 962 m 463 838 l 189 463 l 463 86 l 736 463 l 463 838 "},"Ñ":{"x_min":65,"x_max":1354,"ha":1418,"o":"m 65 926 l 559 926 l 1044 235 l 1073 235 l 1067 926 l 1354 926 l 1354 0 l 863 0 l 376 691 l 345 691 l 351 0 l 65 0 l 65 926 m 914 1255 l 1042 1255 q 1035 1166 1040 1194 q 1014 1115 1030 1138 q 909 1058 976 1058 q 715 1096 849 1058 q 551 1133 587 1133 q 503 1078 505 1133 l 376 1078 q 408 1215 378 1174 q 530 1275 450 1275 q 595 1267 563 1275 q 732 1231 628 1260 q 878 1200 845 1200 q 906 1210 899 1200 q 914 1255 913 1221 "},"F":{"x_min":65,"x_max":1044,"ha":1043,"o":"m 65 926 l 1044 926 l 1044 708 l 347 708 l 347 533 l 1010 533 l 1010 320 l 347 320 l 347 0 l 65 0 l 65 926 "},"­":{"x_min":0.0625,"x_max":586,"ha":586,"o":"m 2 426 l 586 426 l 586 239 l 0 239 l 2 426 "},":":{"x_min":79,"x_max":375,"ha":454,"o":"m 79 657 l 375 657 l 375 411 l 79 411 l 79 657 m 79 246 l 375 246 l 375 0 l 79 0 l 79 246 "},"Û":{"x_min":60,"x_max":1263,"ha":1324,"o":"m 60 926 l 342 926 l 342 500 q 352 315 344 353 q 422 243 363 260 q 662 227 481 227 q 865 235 808 227 q 945 269 921 243 q 967 311 961 286 q 977 398 974 336 q 981 500 981 460 l 981 926 l 1263 926 l 1263 500 q 1248 209 1258 278 q 1137 38 1231 93 q 986 -3 1083 7 q 665 -14 888 -14 q 407 -7 498 -14 q 249 13 316 -1 q 75 193 100 49 q 63 292 66 248 q 60 500 61 337 l 60 926 m 317 1127 l 662 1314 l 1008 1127 l 969 1036 l 662 1116 l 355 1036 l 317 1127 "},"*":{"x_min":112.0625,"x_max":582.1875,"ha":694,"o":"m 285 926 l 414 926 l 414 788 l 546 825 l 582 701 l 454 665 l 532 550 l 428 476 l 346 592 l 263 482 l 160 560 l 243 670 l 112 714 l 152 835 l 285 791 l 285 926 "},"†":{"x_min":128,"x_max":1119,"ha":1259,"o":"m 485 -130 l 485 588 l 128 588 l 128 778 l 485 778 l 485 1074 l 763 1074 l 763 778 l 1119 778 l 1119 588 l 763 588 l 763 -130 l 485 -130 "},"°":{"x_min":92,"x_max":602,"ha":694,"o":"m 368 928 q 553 900 504 928 q 592 846 582 882 q 602 717 602 810 q 587 583 602 614 q 516 528 569 542 q 325 514 462 514 q 149 537 193 514 q 102 592 113 556 q 92 729 92 629 q 109 864 92 832 q 182 915 130 902 q 368 928 235 928 m 338 817 q 251 798 272 817 q 230 722 230 780 q 248 641 230 657 q 344 626 266 626 q 443 642 424 626 q 463 729 463 659 q 440 801 463 785 q 338 817 417 817 "},"V":{"x_min":-18.3125,"x_max":1324.46875,"ha":1306,"o":"m -18 926 l 291 926 l 629 233 l 682 233 l 1016 926 l 1324 926 l 872 0 l 439 0 l -18 926 "},"å":{"x_min":34,"x_max":921,"ha":972,"o":"m 305 451 l 60 451 q 93 567 65 527 q 229 652 137 630 q 543 675 322 675 q 764 662 705 675 q 864 609 823 650 q 909 530 897 576 q 921 395 921 485 l 921 0 l 685 0 l 685 90 l 672 90 q 586 6 645 32 q 499 -11 555 -6 q 320 -17 443 -17 q 167 -4 221 -17 q 81 38 114 8 q 34 187 34 84 q 90 352 34 301 q 208 404 135 392 q 478 417 281 417 q 599 407 563 417 q 664 366 635 397 l 675 366 l 675 400 q 646 496 675 477 q 506 516 618 516 q 342 505 373 516 q 305 451 311 495 m 469 277 q 315 262 345 277 q 280 208 280 244 q 315 154 280 168 q 449 140 350 140 q 623 155 577 140 q 670 214 670 171 q 630 268 670 253 q 469 277 611 275 m 567 1134 q 703 1099 674 1134 q 733 941 733 1065 q 722 797 733 824 q 630 740 702 748 q 502 736 608 737 l 420 736 q 341 743 368 736 q 297 767 314 750 q 272 824 278 789 q 266 948 266 859 q 271 1048 266 1017 q 295 1098 277 1078 q 358 1127 316 1122 q 567 1134 401 1133 m 506 1009 q 412 998 428 1009 q 392 935 392 983 q 409 873 392 885 q 496 861 427 861 q 587 874 567 861 q 607 935 607 887 q 588 995 607 981 q 506 1009 569 1009 "}," ":{"x_min":0,"x_max":0,"ha":347},"0":{"x_min":49,"x_max":1211,"ha":1259,"o":"m 630 937 q 1003 920 894 937 q 1175 813 1127 903 q 1205 713 1200 768 q 1211 463 1211 658 q 1209 267 1211 309 q 1200 184 1207 225 q 1094 34 1181 80 q 1009 6 1058 15 q 870 -6 960 -2 q 630 -11 761 -11 q 256 5 365 -11 q 84 112 132 23 q 54 213 59 157 q 49 475 49 268 q 50 659 49 616 q 59 741 52 701 q 165 891 78 846 q 250 920 201 911 q 390 932 299 928 q 630 937 496 937 m 613 696 q 378 670 420 696 q 341 610 351 654 q 331 467 331 566 q 342 309 331 352 q 389 249 354 265 q 445 235 413 238 q 611 230 476 232 q 811 236 784 233 q 907 284 886 244 q 929 463 929 324 q 917 616 929 573 q 870 676 905 660 q 812 690 844 687 q 613 696 779 693 "},"":{"x_min":45,"x_max":891.796875,"ha":926,"o":"m 666 960 q 607 791 665 858 q 460 719 550 724 q 518 884 463 820 q 666 960 573 948 m 865 634 q 779 543 805 588 q 753 440 753 498 q 789 317 753 371 q 891 233 826 262 q 796 59 847 124 q 658 -37 722 -37 q 569 -11 625 -37 q 497 4 535 4 q 446 0 462 4 q 397 -15 429 -2 q 312 -39 341 -39 q 237 -9 277 -39 q 161 74 197 20 q 45 429 45 247 q 127 656 45 566 q 303 730 194 730 q 420 702 347 730 q 478 688 459 688 q 559 710 499 688 q 664 733 621 733 q 865 634 793 733 "},"”":{"x_min":56,"x_max":766,"ha":840,"o":"m 85 926 l 367 926 l 367 655 q 359 527 367 569 q 333 458 352 484 q 268 413 309 424 q 126 403 228 403 q 56 404 96 403 l 56 540 l 74 540 l 91 540 q 149 557 131 540 q 167 615 167 575 l 167 651 l 85 651 l 85 926 m 484 926 l 766 926 l 766 655 q 758 527 766 569 q 732 458 751 484 q 667 413 708 424 q 525 403 627 403 q 455 404 495 403 l 455 540 l 475 540 l 490 540 q 548 557 530 540 q 566 615 566 575 l 566 651 l 484 651 l 484 926 "},"¾":{"x_min":45.046875,"x_max":1939,"ha":1948,"o":"m 226 730 l 47 730 q 46 764 46 758 q 66 864 46 831 q 139 913 87 897 q 423 933 204 933 q 603 926 547 933 q 686 903 658 920 q 730 855 717 886 q 744 774 744 825 q 728 694 744 719 q 668 655 712 669 q 737 615 720 641 q 755 523 755 588 q 735 432 755 464 q 668 385 716 401 q 336 363 605 363 q 168 372 223 363 q 85 406 113 382 q 53 462 62 427 q 45 572 45 498 l 224 572 q 225 557 225 561 q 240 508 225 513 q 396 502 256 504 q 549 510 527 504 q 572 547 572 516 q 553 586 572 580 q 425 592 535 592 l 317 592 l 317 711 l 456 711 q 541 719 521 711 q 561 757 561 728 q 542 790 561 783 q 405 797 521 797 q 279 794 310 797 q 239 785 249 792 q 226 730 226 775 m 1306 938 l 1415 850 l 715 -12 l 607 75 l 1306 938 m 1939 235 l 1939 101 l 1826 101 l 1826 0 l 1646 0 l 1646 101 l 1180 101 l 1180 318 l 1530 555 l 1826 555 l 1826 235 l 1939 235 m 1646 235 l 1646 418 l 1617 418 l 1350 247 l 1350 235 l 1646 235 "},"@":{"x_min":46,"x_max":1282,"ha":1324,"o":"m 833 703 l 1034 703 l 1008 403 q 1008 392 1008 400 q 1020 351 1008 361 q 1068 341 1032 341 q 1109 353 1096 341 q 1128 397 1122 365 q 1136 551 1136 436 q 1121 734 1136 683 q 1017 806 1102 798 q 766 812 955 812 q 393 806 472 812 q 274 780 315 801 q 208 699 226 755 q 190 518 190 642 q 195 305 190 373 q 213 201 200 237 q 333 121 236 138 q 573 113 380 113 q 847 117 767 113 q 964 134 927 121 q 1011 173 988 142 l 1129 130 q 1068 50 1106 76 q 922 5 1017 15 q 547 -5 828 -5 q 315 0 378 -5 q 206 24 252 5 q 62 196 88 72 q 46 448 46 274 q 75 742 46 666 q 282 913 127 879 q 410 926 328 923 q 705 930 491 930 q 999 925 919 930 q 1122 909 1079 921 q 1266 755 1237 875 q 1282 552 1282 692 q 1270 384 1282 443 q 1231 285 1259 325 q 1161 234 1205 248 q 1025 221 1117 221 q 862 235 905 221 q 805 298 820 250 l 800 298 q 731 237 779 254 q 576 221 684 221 q 353 258 413 221 q 294 399 294 296 q 368 661 294 597 q 460 703 405 692 q 634 715 516 715 q 761 699 724 715 q 822 638 798 684 l 828 638 l 833 703 m 673 567 q 526 546 555 567 q 497 443 497 523 q 507 396 497 410 q 545 376 517 382 q 645 370 583 370 q 784 390 750 370 q 816 494 816 409 q 808 535 816 521 q 784 555 801 548 q 673 567 752 567 "},"ö":{"x_min":37,"x_max":967,"ha":1004,"o":"m 502 674 q 752 660 669 674 q 882 613 836 647 q 949 521 931 578 q 967 341 967 464 q 961 203 967 249 q 943 121 956 157 q 800 4 907 29 q 503 -17 710 -17 q 239 -3 319 -17 q 112 48 160 9 q 52 146 67 86 q 37 349 37 206 q 43 473 37 431 q 68 551 49 516 q 194 648 105 623 q 502 674 283 673 m 504 489 q 339 470 382 489 q 295 422 308 455 q 283 324 283 389 q 293 231 283 259 q 335 189 304 203 q 503 168 381 168 q 682 197 643 168 q 721 330 721 226 q 708 425 721 395 q 664 468 696 455 q 504 489 618 489 m 196 968 l 454 968 l 454 792 l 196 792 l 196 968 m 549 968 l 807 968 l 807 792 l 549 792 l 549 968 "},"i":{"x_min":56,"x_max":302,"ha":357,"o":"m 56 657 l 302 657 l 302 0 l 56 0 l 56 657 m 56 926 l 302 926 l 302 742 l 56 742 l 56 926 "},"Õ":{"x_min":46,"x_max":1318,"ha":1364,"o":"m 682 939 q 1094 924 981 939 q 1292 770 1256 902 q 1318 462 1318 679 q 1292 154 1318 245 q 1094 0 1256 22 q 684 -14 981 -14 q 269 0 382 -14 q 71 154 107 22 q 46 468 46 245 q 71 770 46 679 q 269 924 107 902 q 682 939 381 939 m 682 698 q 412 686 458 698 q 344 625 360 672 q 328 438 328 578 q 336 315 328 353 q 439 235 353 245 q 684 227 502 227 q 910 233 854 227 q 993 260 966 239 q 1027 316 1018 279 q 1036 437 1036 353 q 1029 583 1036 536 q 1004 653 1022 630 q 930 690 982 683 q 682 698 879 698 m 887 1255 l 1015 1255 q 1008 1166 1013 1194 q 987 1115 1003 1138 q 882 1058 949 1058 q 688 1096 822 1058 q 524 1133 560 1133 q 476 1078 478 1133 l 349 1078 q 381 1215 351 1174 q 503 1275 423 1275 q 568 1267 536 1275 q 705 1231 601 1260 q 851 1200 818 1200 q 879 1210 872 1200 q 887 1255 886 1221 "},"ć":{"x_min":37,"x_max":937.234375,"ha":971,"o":"m 344 797 l 631 1082 l 755 913 l 408 714 l 344 797 m 686 264 l 936 264 q 919 138 933 181 q 874 63 906 95 q 747 -1 827 14 q 473 -17 667 -17 q 246 -4 321 -17 q 121 43 170 8 q 55 139 73 77 q 37 332 37 202 q 53 511 37 451 q 114 607 70 572 q 240 659 161 645 q 486 674 319 674 q 732 659 649 674 q 862 606 815 644 q 917 528 901 575 q 937 390 933 482 l 686 390 q 637 467 680 446 q 485 489 593 489 q 333 468 376 489 q 294 422 306 455 q 283 324 283 389 q 295 231 283 261 q 338 188 307 201 q 489 168 384 168 q 637 187 597 168 q 686 264 678 207 "},"þ":{"x_min":56,"x_max":983,"ha":1019,"o":"m 56 -273 l 56 926 l 287 926 l 287 568 l 301 568 q 396 651 332 629 q 602 674 460 674 q 801 657 729 674 q 915 602 873 640 q 968 507 954 566 q 983 325 983 449 q 976 195 983 242 q 953 109 970 148 q 844 10 923 37 q 591 -17 765 -17 q 407 4 466 -17 q 313 85 349 25 l 302 85 l 302 -273 l 56 -273 m 528 489 q 337 457 373 489 q 302 321 302 426 q 312 236 302 265 q 347 193 322 207 q 520 168 390 168 q 697 195 656 168 q 728 241 720 210 q 737 338 737 272 q 726 425 737 398 q 688 466 716 451 q 528 489 646 488 "},"]":{"x_min":50,"x_max":481,"ha":545,"o":"m 481 945 l 481 -74 l 50 -74 l 50 100 l 233 100 l 233 771 l 50 771 l 50 945 l 481 945 "},"m":{"x_min":56,"x_max":1490,"ha":1541,"o":"m 56 657 l 287 657 l 287 559 l 299 559 q 566 674 352 674 q 754 641 684 674 q 864 536 824 609 q 960 641 893 609 q 1147 674 1026 674 q 1314 654 1249 674 q 1420 589 1378 634 q 1476 489 1462 545 q 1490 307 1490 434 l 1490 0 l 1244 0 l 1244 307 q 1238 407 1244 379 q 1216 453 1233 436 q 1078 489 1180 489 q 932 447 970 489 q 903 387 911 424 q 896 271 896 351 l 896 0 l 650 0 l 650 307 q 645 409 650 383 q 624 452 641 434 q 488 489 590 489 q 338 449 378 489 q 309 390 317 427 q 302 271 302 352 l 302 0 l 56 0 l 56 657 "},"8":{"x_min":85,"x_max":1173,"ha":1259,"o":"m 265 473 q 160 499 194 478 q 96 679 96 542 q 139 851 96 797 q 211 901 166 884 q 340 926 256 918 q 629 937 454 937 q 1048 900 959 937 q 1139 816 1113 873 q 1162 679 1162 765 q 1125 524 1162 569 q 992 473 1088 480 q 1103 439 1074 459 q 1157 368 1141 414 q 1173 242 1173 323 q 1134 75 1173 127 q 1055 20 1106 39 q 912 -5 1004 1 q 629 -11 844 -11 q 333 -5 410 -11 q 202 20 255 0 q 111 95 138 45 q 85 242 85 145 q 103 375 85 328 q 166 446 122 422 q 265 473 194 461 m 600 729 q 403 715 442 729 q 365 647 365 701 q 400 579 365 590 q 618 568 436 568 q 812 569 779 568 q 865 580 844 571 q 893 648 893 593 q 880 697 893 680 q 841 718 868 714 q 600 729 791 728 m 629 370 q 390 359 422 370 q 362 334 370 352 q 354 281 354 317 q 363 227 354 243 q 400 205 372 211 q 601 197 431 197 q 847 205 786 197 q 891 227 879 209 q 904 287 904 244 q 895 337 904 322 q 862 359 886 353 q 629 370 840 366 "},"ž":{"x_min":23,"x_max":822,"ha":845,"o":"m 52 657 l 808 657 l 808 469 l 401 172 l 822 172 l 822 0 l 23 0 l 23 170 l 444 490 l 52 490 l 52 657 m 749 931 l 422 731 l 95 931 l 133 1013 l 422 910 l 711 1013 l 749 931 "},"R":{"x_min":65,"x_max":1218,"ha":1250,"o":"m 65 0 l 65 926 l 746 926 q 1034 920 986 925 q 1125 889 1081 916 q 1198 801 1178 857 q 1218 625 1218 745 q 1205 476 1218 523 q 1158 400 1192 428 q 1045 358 1121 369 q 1173 307 1134 351 q 1201 243 1195 281 q 1208 86 1208 205 l 1208 0 l 930 0 l 930 49 q 924 159 930 126 q 902 209 918 192 q 859 230 887 226 q 744 235 832 235 l 347 235 l 347 0 l 65 0 m 347 466 l 744 466 q 867 469 847 468 q 901 480 887 471 q 927 514 920 491 q 935 583 935 537 q 926 652 935 629 q 897 684 918 674 q 861 692 882 691 q 743 695 840 694 l 347 695 l 347 466 "},"á":{"x_min":34,"x_max":921,"ha":972,"o":"m 305 451 l 60 451 q 93 567 65 527 q 229 652 137 630 q 543 675 322 675 q 764 662 705 675 q 864 609 823 650 q 909 530 897 576 q 921 395 921 485 l 921 0 l 685 0 l 685 90 l 672 90 q 586 6 645 32 q 499 -11 555 -6 q 320 -17 443 -17 q 167 -4 221 -17 q 81 38 114 8 q 34 187 34 84 q 90 352 34 301 q 208 404 135 392 q 478 417 281 417 q 599 407 563 417 q 664 366 635 397 l 675 366 l 675 400 q 646 496 675 477 q 506 516 618 516 q 342 505 373 516 q 305 451 311 495 m 469 277 q 315 262 345 277 q 280 208 280 244 q 315 154 280 168 q 449 140 350 140 q 623 155 577 140 q 670 214 670 171 q 630 268 670 253 q 469 277 611 275 m 358 797 l 645 1082 l 769 913 l 422 714 l 358 797 "},"×":{"x_min":233.96875,"x_max":1025.390625,"ha":1259,"o":"m 630 354 l 351 76 l 233 193 l 512 472 l 233 750 l 351 868 l 630 590 l 907 868 l 1025 750 l 747 472 l 1025 193 l 907 76 l 630 354 "},"o":{"x_min":37,"x_max":967,"ha":1004,"o":"m 502 674 q 752 660 669 674 q 882 613 836 647 q 949 521 931 578 q 967 341 967 464 q 961 203 967 249 q 943 121 956 157 q 800 4 907 29 q 503 -17 710 -17 q 239 -3 319 -17 q 112 48 160 9 q 52 146 67 86 q 37 349 37 206 q 43 473 37 431 q 68 551 49 516 q 194 648 105 623 q 502 674 283 673 m 504 489 q 339 470 382 489 q 295 422 308 455 q 283 324 283 389 q 293 231 283 259 q 335 189 304 203 q 503 168 381 168 q 682 197 643 168 q 721 330 721 226 q 708 425 721 395 q 664 468 696 455 q 504 489 618 489 "},"5":{"x_min":65,"x_max":1174,"ha":1259,"o":"m 101 926 l 1131 926 l 1131 726 l 528 726 q 349 732 377 725 l 349 634 q 346 564 349 590 q 432 616 391 605 q 707 635 502 635 q 1083 581 1000 635 q 1152 491 1131 550 q 1174 330 1174 432 q 1145 127 1174 197 q 1049 29 1117 58 q 920 -3 994 4 q 684 -12 846 -12 q 378 -6 473 -12 q 214 14 283 -1 q 99 86 133 32 q 65 249 65 140 q 65 286 65 259 l 334 286 q 351 218 336 233 q 424 198 367 204 q 609 193 481 193 q 799 195 758 193 q 863 205 840 197 q 892 239 884 214 q 901 322 901 264 q 888 395 901 374 q 842 423 876 416 q 549 437 767 437 q 386 425 425 437 q 348 376 348 413 q 349 365 348 373 l 101 365 l 101 926 "},"İ":{"x_min":65,"x_max":361,"ha":426,"o":"m 76 1269 l 353 1269 l 353 1064 l 76 1064 l 76 1269 m 65 926 l 361 926 l 361 0 l 65 0 l 65 926 "},"õ":{"x_min":37,"x_max":967,"ha":1004,"o":"m 502 674 q 752 660 669 674 q 882 613 836 647 q 949 521 931 578 q 967 341 967 464 q 961 203 967 249 q 943 121 956 157 q 800 4 907 29 q 503 -17 710 -17 q 239 -3 319 -17 q 112 48 160 9 q 52 146 67 86 q 37 349 37 206 q 43 473 37 431 q 68 551 49 516 q 194 648 105 623 q 502 674 283 673 m 504 489 q 339 470 382 489 q 295 422 308 455 q 283 324 283 389 q 293 231 283 259 q 335 189 304 203 q 503 168 381 168 q 682 197 643 168 q 721 330 721 226 q 708 425 721 395 q 664 468 696 455 q 504 489 618 489 m 699 977 l 822 977 q 797 826 821 869 q 698 764 763 764 q 512 811 639 764 q 355 857 390 857 q 318 839 329 857 q 305 782 306 822 l 182 782 q 212 929 184 884 q 327 995 252 995 q 390 986 359 995 q 521 940 422 977 q 660 902 628 902 q 696 929 688 902 q 699 977 698 941 "},"7":{"x_min":105,"x_max":1164,"ha":1259,"o":"m 105 926 l 1164 926 l 1164 710 l 638 0 l 282 0 l 805 692 l 105 692 l 105 926 "},"K":{"x_min":65,"x_max":1344.59375,"ha":1317,"o":"m 65 926 l 347 926 l 347 590 l 501 590 l 867 932 l 1299 932 l 764 471 l 1344 0 l 915 0 l 501 354 l 347 354 l 347 0 l 65 0 l 65 926 "},",":{"x_min":60,"x_max":395,"ha":473,"o":"m 99 275 l 395 275 l 395 4 q 387 -124 395 -81 q 359 -192 379 -166 q 287 -237 332 -226 q 131 -248 243 -248 q 60 -247 99 -248 l 60 -102 l 80 -102 l 105 -102 q 159 -84 142 -102 q 176 -25 176 -66 l 176 0 l 99 0 l 99 275 "},"d":{"x_min":36,"x_max":962,"ha":1018,"o":"m 962 926 l 962 0 l 731 0 l 731 86 l 716 86 q 659 22 690 41 q 426 -17 591 -17 q 221 -1 293 -17 q 107 52 149 14 q 51 149 66 89 q 36 332 36 210 q 44 468 36 417 q 73 559 52 520 q 209 656 112 632 q 428 674 280 674 q 614 652 558 674 q 705 569 670 631 l 716 569 l 716 926 l 962 926 m 508 489 q 322 461 363 489 q 282 335 282 433 q 294 230 282 261 q 339 185 306 198 q 494 168 383 168 q 676 196 630 168 q 707 239 698 210 q 717 327 717 269 q 704 425 717 394 q 661 470 692 457 q 508 489 616 489 "},"¨":{"x_min":41,"x_max":652,"ha":694,"o":"m 41 968 l 299 968 l 299 792 l 41 792 l 41 968 m 394 968 l 652 968 l 652 792 l 394 792 l 394 968 "},"Ô":{"x_min":46,"x_max":1318,"ha":1364,"o":"m 682 939 q 1094 924 981 939 q 1292 770 1256 902 q 1318 462 1318 679 q 1292 154 1318 245 q 1094 0 1256 22 q 684 -14 981 -14 q 269 0 382 -14 q 71 154 107 22 q 46 468 46 245 q 71 770 46 679 q 269 924 107 902 q 682 939 381 939 m 682 698 q 412 686 458 698 q 344 625 360 672 q 328 438 328 578 q 336 315 328 353 q 439 235 353 245 q 684 227 502 227 q 910 233 854 227 q 993 260 966 239 q 1027 316 1018 279 q 1036 437 1036 353 q 1029 583 1036 536 q 1004 653 1022 630 q 930 690 982 683 q 682 698 879 698 m 337 1127 l 682 1314 l 1028 1127 l 989 1036 l 682 1116 l 375 1036 l 337 1127 "},"E":{"x_min":65,"x_max":1096,"ha":1119,"o":"m 65 926 l 1091 926 l 1091 708 l 343 708 l 343 574 l 1053 574 l 1053 371 l 343 371 l 343 222 l 1096 222 l 1096 0 l 65 0 l 65 926 "},"Y":{"x_min":-28,"x_max":1301.59375,"ha":1274,"o":"m -28 926 l 342 926 l 644 554 l 934 926 l 1301 926 l 795 327 l 795 0 l 503 0 l 503 327 l -28 926 "},"\"":{"x_min":50.859375,"x_max":671.390625,"ha":722,"o":"m 292 517 l 77 517 l 50 926 l 319 926 l 292 517 m 644 517 l 429 517 l 402 926 l 671 926 l 644 517 "},"‹":{"x_min":46.109375,"x_max":458.4375,"ha":505,"o":"m 223 602 l 375 480 l 301 385 l 458 105 l 260 0 l 46 385 l 223 602 "},"˙":{"x_min":215,"x_max":480,"ha":694,"o":"m 215 970 l 480 970 l 480 790 l 215 790 l 215 970 "},"ê":{"x_min":37,"x_max":926,"ha":963,"o":"m 676 210 l 920 210 q 855 56 910 102 q 721 -1 808 14 q 461 -17 634 -17 q 241 -3 317 -17 q 119 44 164 10 q 54 140 72 80 q 37 324 37 200 q 43 465 37 418 q 69 550 50 512 q 211 652 108 628 q 485 673 300 673 q 717 661 650 673 q 881 572 836 641 q 926 341 926 503 q 925 275 926 325 l 282 275 q 289 203 282 224 q 314 167 295 181 q 480 140 351 140 q 603 146 562 140 q 659 167 644 152 q 676 210 671 180 m 679 409 q 674 462 678 447 q 659 488 670 476 q 489 521 627 521 q 325 499 365 521 q 282 409 285 477 l 679 409 m 164 827 l 491 1028 l 818 827 l 780 745 l 491 848 l 202 745 l 164 827 "},"Ï":{"x_min":-74,"x_max":500,"ha":426,"o":"m 65 926 l 361 926 l 361 0 l 65 0 l 65 926 m -74 1267 l 176 1267 l 176 1067 l -74 1067 l -74 1267 m 250 1267 l 500 1267 l 500 1067 l 250 1067 l 250 1267 "},"„":{"x_min":56,"x_max":766,"ha":840,"o":"m 85 275 l 367 275 l 367 4 q 359 -123 367 -81 q 333 -192 352 -166 q 268 -237 309 -226 q 126 -248 228 -248 q 56 -247 96 -248 l 56 -111 l 74 -111 l 91 -111 q 149 -93 131 -111 q 167 -35 167 -75 l 167 0 l 85 0 l 85 275 m 484 275 l 766 275 l 766 4 q 758 -123 766 -81 q 732 -192 751 -166 q 667 -237 708 -226 q 525 -248 627 -248 q 455 -247 495 -248 l 455 -111 l 475 -111 l 490 -111 q 548 -93 530 -111 q 566 -35 566 -75 l 566 0 l 484 0 l 484 275 "},"Â":{"x_min":-23.0625,"x_max":1390.25,"ha":1367,"o":"m 1070 0 l 990 157 l 378 157 l 299 0 l -23 0 l 467 926 l 906 926 l 1390 0 l 1070 0 m 891 360 l 713 711 l 657 711 l 478 360 l 891 360 m 338 1127 l 683 1314 l 1029 1127 l 990 1036 l 683 1116 l 376 1036 l 338 1127 "},"Í":{"x_min":65,"x_max":529.1875,"ha":426,"o":"m 65 926 l 361 926 l 361 0 l 65 0 l 65 926 m 390 1360 l 529 1171 l 175 973 l 102 1068 l 390 1360 "},"´":{"x_min":201.421875,"x_max":612.390625,"ha":694,"o":"m 201 797 l 488 1082 l 612 913 l 265 714 l 201 797 "},"ì":{"x_min":-79.640625,"x_max":302,"ha":357,"o":"m 56 657 l 302 657 l 302 0 l 56 0 l 56 657 m 68 1085 l 293 765 l 220 699 l -79 946 l 68 1085 "},"±":{"x_min":176,"x_max":1083,"ha":1259,"o":"m 546 479 l 176 479 l 176 646 l 546 646 l 546 935 l 714 935 l 714 646 l 1083 646 l 1083 479 l 714 479 l 714 191 l 546 191 l 546 479 m 176 157 l 1083 157 l 1083 0 l 176 0 l 176 157 "},"Ú":{"x_min":60,"x_max":1263,"ha":1324,"o":"m 60 926 l 342 926 l 342 500 q 352 315 344 353 q 422 243 363 260 q 662 227 481 227 q 865 235 808 227 q 945 269 921 243 q 967 311 961 286 q 977 398 974 336 q 981 500 981 460 l 981 926 l 1263 926 l 1263 500 q 1248 209 1258 278 q 1137 38 1231 93 q 986 -3 1083 7 q 665 -14 888 -14 q 407 -7 498 -14 q 249 13 316 -1 q 75 193 100 49 q 63 292 66 248 q 60 500 61 337 l 60 926 m 855 1344 l 963 1127 l 568 989 l 510 1098 l 855 1344 "},"|":{"x_min":212,"x_max":482,"ha":694,"o":"m 212 926 l 482 926 l 482 -231 l 212 -231 l 212 926 "},"§":{"x_min":148,"x_max":1112,"ha":1259,"o":"m 1068 791 l 830 791 q 826 851 830 834 q 811 876 822 867 q 758 893 796 889 q 617 897 721 897 q 450 886 482 897 q 419 834 419 876 q 436 791 419 803 q 509 771 454 779 l 877 724 q 998 698 956 714 q 1064 655 1040 683 q 1109 486 1109 603 q 1093 358 1109 398 q 1034 296 1078 318 q 1096 244 1080 277 q 1112 135 1112 211 q 1094 -1 1112 50 q 1039 -81 1077 -53 q 897 -132 988 -119 q 591 -145 805 -145 q 406 -138 465 -145 q 304 -116 347 -132 q 201 -27 228 -86 q 174 169 174 32 l 400 169 q 408 104 402 124 q 428 73 414 84 q 487 52 448 57 q 644 48 527 48 q 827 60 792 48 q 862 124 862 73 q 844 174 862 161 q 767 195 826 187 l 322 254 q 181 311 215 268 q 148 474 148 353 q 166 601 148 562 q 235 658 185 640 q 182 726 195 688 q 170 846 170 764 q 205 996 170 948 q 405 1081 255 1065 q 694 1090 488 1090 q 865 1082 807 1090 q 963 1054 923 1074 q 1044 976 1019 1024 q 1069 845 1069 927 q 1068 791 1069 827 m 458 420 l 802 378 q 849 374 836 374 q 910 467 910 374 q 887 527 910 511 q 792 552 865 543 l 492 587 q 434 594 441 594 q 369 502 369 594 q 385 442 369 458 q 458 420 402 427 "},"Ý":{"x_min":-28,"x_max":1301.59375,"ha":1274,"o":"m -28 926 l 342 926 l 644 554 l 934 926 l 1301 926 l 795 327 l 795 0 l 503 0 l 503 327 l -28 926 m 849 1344 l 957 1127 l 562 989 l 504 1098 l 849 1344 "},"b":{"x_min":56,"x_max":983,"ha":1019,"o":"m 56 926 l 302 926 l 302 569 l 312 569 q 407 651 350 629 q 588 674 465 674 q 783 659 709 674 q 899 612 856 645 q 965 517 947 577 q 983 330 983 457 q 977 203 983 247 q 958 122 972 159 q 848 14 930 45 q 595 -17 767 -17 q 357 22 422 -17 q 301 86 328 39 l 287 86 l 287 0 l 56 0 l 56 926 m 520 489 q 350 465 394 489 q 312 420 323 451 q 302 325 302 389 q 314 227 302 256 q 362 186 327 198 q 524 168 413 168 q 697 195 654 168 q 728 240 719 209 q 737 334 737 271 q 725 427 737 399 q 680 469 713 456 q 520 489 631 489 "},"q":{"x_min":37,"x_max":963,"ha":1019,"o":"m 963 -273 l 717 -273 l 717 85 l 706 85 q 610 3 665 23 q 429 -17 554 -17 q 219 -1 289 -17 q 105 52 148 13 q 52 146 67 88 q 37 315 37 204 q 54 509 37 444 q 115 610 71 575 q 229 659 157 645 q 433 674 300 674 q 621 652 564 674 q 718 568 678 631 l 732 568 l 732 657 l 963 657 l 963 -273 m 494 489 q 320 459 360 489 q 291 411 299 444 q 283 315 283 379 q 292 234 283 260 q 327 193 301 208 q 498 168 371 168 q 677 196 638 168 q 717 328 717 225 q 706 420 717 391 q 668 465 696 449 q 494 489 626 488 "},"Ö":{"x_min":46,"x_max":1318,"ha":1364,"o":"m 682 939 q 1094 924 981 939 q 1292 770 1256 902 q 1318 462 1318 679 q 1292 154 1318 245 q 1094 0 1256 22 q 684 -14 981 -14 q 269 0 382 -14 q 71 154 107 22 q 46 468 46 245 q 71 770 46 679 q 269 924 107 902 q 682 939 381 939 m 682 698 q 412 686 458 698 q 344 625 360 672 q 328 438 328 578 q 336 315 328 353 q 439 235 353 245 q 684 227 502 227 q 910 233 854 227 q 993 260 966 239 q 1027 316 1018 279 q 1036 437 1036 353 q 1029 583 1036 536 q 1004 653 1022 630 q 930 690 982 683 q 682 698 879 698 m 340 1267 l 609 1267 l 609 1067 l 340 1067 l 340 1267 m 756 1267 l 1025 1267 l 1025 1067 l 756 1067 l 756 1267 "},"z":{"x_min":23,"x_max":822,"ha":845,"o":"m 52 657 l 808 657 l 808 469 l 401 172 l 822 172 l 822 0 l 23 0 l 23 170 l 444 490 l 52 490 l 52 657 "},"ã":{"x_min":34,"x_max":921,"ha":972,"o":"m 305 451 l 60 451 q 93 567 65 527 q 229 652 137 630 q 543 675 322 675 q 764 662 705 675 q 864 609 823 650 q 909 530 897 576 q 921 395 921 485 l 921 0 l 685 0 l 685 90 l 672 90 q 586 6 645 32 q 499 -11 555 -6 q 320 -17 443 -17 q 167 -4 221 -17 q 81 38 114 8 q 34 187 34 84 q 90 352 34 301 q 208 404 135 392 q 478 417 281 417 q 599 407 563 417 q 664 366 635 397 l 675 366 l 675 400 q 646 496 675 477 q 506 516 618 516 q 342 505 373 516 q 305 451 311 495 m 469 277 q 315 262 345 277 q 280 208 280 244 q 315 154 280 168 q 449 140 350 140 q 623 155 577 140 q 670 214 670 171 q 630 268 670 253 q 469 277 611 275 m 692 977 l 815 977 q 790 826 814 869 q 691 764 756 764 q 505 811 632 764 q 348 857 383 857 q 311 839 322 857 q 298 782 299 822 l 175 782 q 205 929 177 884 q 320 995 245 995 q 383 986 352 995 q 514 940 415 977 q 653 902 621 902 q 689 929 681 902 q 692 977 691 941 "},"æ":{"x_min":34,"x_max":1546,"ha":1583,"o":"m 1301 210 l 1542 210 q 1521 115 1534 148 q 1479 56 1507 82 q 1346 0 1432 15 q 1089 -17 1260 -17 q 866 2 933 -17 q 764 75 799 21 l 752 75 q 649 2 720 21 q 409 -17 578 -17 q 198 -10 256 -17 q 105 16 140 -4 q 34 192 34 60 q 102 365 34 318 q 215 407 148 398 q 460 417 282 417 q 595 407 558 417 q 665 367 633 398 l 677 367 l 677 399 q 645 498 677 479 q 479 517 613 517 q 338 507 366 517 q 308 455 311 497 l 63 455 q 137 613 68 562 q 264 661 186 648 q 512 674 342 674 q 695 655 639 674 q 791 582 752 636 l 805 582 q 906 656 841 638 q 1142 674 971 674 q 1329 664 1263 674 q 1439 631 1394 655 q 1522 535 1498 598 q 1546 343 1546 471 l 1545 275 l 907 275 q 938 168 908 192 q 1118 140 975 140 q 1283 166 1254 140 q 1301 210 1294 176 m 464 281 q 321 270 351 281 q 280 210 280 254 q 316 154 280 168 q 460 140 353 140 q 629 154 586 140 q 673 213 673 169 q 627 274 673 260 q 464 281 608 280 m 1299 409 q 1295 462 1298 448 q 1282 488 1292 476 q 1114 521 1251 521 q 948 500 986 521 q 907 409 910 480 l 1299 409 "},"®":{"x_min":46,"x_max":1233,"ha":1279,"o":"m 666 940 q 1010 924 910 940 q 1155 864 1110 908 q 1199 796 1184 835 q 1222 685 1214 756 q 1233 459 1233 596 q 1216 195 1233 285 q 1160 63 1199 105 q 1022 2 1118 18 q 709 -14 926 -14 q 473 -10 604 -14 q 301 -3 343 -7 q 189 19 230 3 q 116 69 148 35 q 60 194 74 113 q 46 466 46 274 q 77 788 46 692 q 248 921 114 900 q 666 940 371 939 m 595 839 q 324 828 400 839 q 212 786 248 818 q 169 690 181 757 q 158 473 158 624 q 167 240 158 308 q 204 144 176 173 q 260 110 227 120 q 365 95 294 99 q 646 87 394 93 q 919 94 874 92 q 1003 105 964 97 q 1067 141 1040 114 q 1102 206 1093 168 q 1121 471 1121 286 q 1104 727 1121 656 q 1067 790 1095 765 q 995 824 1038 816 q 898 835 948 833 q 595 839 848 836 m 269 185 l 269 741 l 705 741 q 888 737 857 741 q 948 718 919 734 q 996 664 983 698 q 1010 559 1010 630 q 989 441 1010 472 q 905 402 969 411 q 987 367 971 393 q 1003 242 1003 342 l 1003 185 l 814 185 l 814 221 q 799 310 814 295 q 776 320 790 318 q 704 323 761 322 l 460 323 l 460 185 l 269 185 m 460 472 l 703 472 q 801 479 790 473 q 819 533 819 489 q 804 583 819 576 q 703 592 790 591 l 460 592 l 460 472 "},"É":{"x_min":65,"x_max":1096,"ha":1119,"o":"m 65 926 l 1091 926 l 1091 708 l 343 708 l 343 574 l 1053 574 l 1053 371 l 343 371 l 343 222 l 1096 222 l 1096 0 l 65 0 l 65 926 m 771 1344 l 879 1127 l 484 989 l 426 1098 l 771 1344 "},"~":{"x_min":127.5,"x_max":802.953125,"ha":926,"o":"m 254 743 l 127 851 q 189 972 155 926 q 343 1061 252 1061 q 404 1051 372 1061 q 531 1004 436 1041 q 592 989 571 989 q 634 1004 617 989 q 675 1064 651 1020 l 802 956 q 735 827 767 868 q 584 745 672 745 q 529 755 562 745 q 408 798 495 765 q 336 818 358 818 q 295 801 313 818 q 254 743 278 785 "},"³":{"x_min":45.046875,"x_max":754,"ha":812,"o":"m 226 730 l 47 730 q 46 764 46 758 q 66 864 46 831 q 139 913 87 897 q 423 933 204 933 q 603 926 547 933 q 686 903 658 920 q 730 855 717 886 q 744 774 744 825 q 728 694 744 719 q 668 655 712 669 q 736 615 719 641 q 754 523 754 588 q 734 432 754 464 q 667 385 715 401 q 336 363 604 363 q 168 372 223 363 q 85 406 113 382 q 53 462 62 427 q 45 572 45 498 l 224 572 q 225 557 225 561 q 240 508 225 513 q 395 502 255 504 q 548 511 526 505 q 571 548 571 516 q 552 586 571 580 q 425 592 534 592 l 317 592 l 317 711 l 456 711 q 541 719 521 711 q 561 757 561 728 q 542 790 561 783 q 405 797 521 797 q 279 794 310 797 q 239 785 249 792 q 226 730 226 775 "},"¡":{"x_min":76,"x_max":387,"ha":463,"o":"m 370 0 l 93 0 l 93 529 l 370 529 l 370 0 m 387 636 l 76 636 l 76 926 l 387 926 l 387 636 "},"[":{"x_min":65,"x_max":496,"ha":545,"o":"m 65 945 l 496 945 l 496 771 l 313 771 l 313 100 l 496 100 l 496 -74 l 65 -74 l 65 945 "},"L":{"x_min":65,"x_max":1020,"ha":1019,"o":"m 65 926 l 361 926 l 361 236 l 1020 236 l 1020 0 l 65 0 l 65 926 "}," ":{"x_min":0,"x_max":0,"ha":347},"%":{"x_min":28,"x_max":1834,"ha":1862,"o":"m 395 940 q 702 903 626 940 q 750 840 739 885 q 761 663 761 796 q 748 478 761 522 q 688 417 735 435 q 394 387 609 387 q 101 416 180 387 q 41 481 55 434 q 28 674 28 528 q 44 854 28 811 q 119 916 61 898 q 395 940 197 939 m 392 796 q 228 781 265 796 q 199 746 207 772 q 191 665 191 720 q 200 576 191 601 q 236 542 210 550 q 391 530 273 530 q 562 543 513 530 q 591 584 585 550 q 598 663 598 614 q 587 759 598 727 q 568 780 581 774 q 511 789 554 785 q 392 796 454 796 m 1361 947 l 1456 838 l 502 -21 l 404 87 l 1361 947 m 1453 543 q 1768 507 1680 543 q 1822 446 1810 490 q 1834 264 1834 402 q 1820 75 1834 117 q 1752 15 1806 34 q 1452 -14 1663 -14 q 1170 17 1251 -14 q 1111 82 1124 36 q 1099 275 1099 128 q 1114 455 1099 411 q 1187 517 1130 498 q 1453 543 1267 542 m 1454 397 q 1299 383 1337 397 q 1270 350 1278 376 q 1262 267 1262 324 q 1271 175 1262 200 q 1307 142 1280 150 q 1452 132 1345 132 q 1633 146 1586 132 q 1662 178 1654 151 q 1671 264 1671 206 q 1661 353 1671 328 q 1626 384 1651 378 q 1454 397 1575 397 "},"P":{"x_min":65,"x_max":1176,"ha":1204,"o":"m 65 0 l 65 926 l 698 926 q 941 918 887 926 q 1127 830 1079 900 q 1176 579 1176 759 q 1136 338 1176 408 q 1060 267 1108 292 q 926 233 1011 243 q 701 227 866 227 l 347 227 l 347 0 l 65 0 m 347 458 l 699 458 q 816 460 795 458 q 855 471 838 462 q 884 506 876 483 q 893 579 893 529 q 882 652 893 629 q 847 685 872 675 q 699 695 828 692 l 347 695 l 347 458 "},"À":{"x_min":-23.0625,"x_max":1390.25,"ha":1367,"o":"m 1070 0 l 990 157 l 378 157 l 299 0 l -23 0 l 467 926 l 906 926 l 1390 0 l 1070 0 m 891 360 l 713 711 l 657 711 l 478 360 l 891 360 m 363 1126 l 472 1342 l 816 1096 l 760 990 l 363 1126 "},"_":{"x_min":0,"x_max":694,"ha":694,"o":"m 0 -54 l 694 -54 l 694 -222 l 0 -222 l 0 -54 "},"ñ":{"x_min":56,"x_max":947,"ha":998,"o":"m 56 657 l 287 657 l 287 557 l 300 557 q 397 647 333 621 q 578 674 460 674 q 763 655 696 674 q 874 591 831 636 q 933 489 919 545 q 947 298 947 434 l 947 0 l 701 0 l 701 298 q 695 405 701 377 q 669 453 689 434 q 505 489 634 489 q 337 445 378 489 q 308 387 315 421 q 302 262 302 352 l 302 0 l 56 0 l 56 657 m 709 977 l 832 977 q 807 826 831 869 q 708 764 773 764 q 522 811 649 764 q 365 857 400 857 q 328 839 339 857 q 315 782 316 822 l 192 782 q 222 929 194 884 q 337 995 262 995 q 400 986 369 995 q 531 940 432 977 q 670 902 638 902 q 706 929 698 902 q 709 977 708 941 "},"+":{"x_min":176,"x_max":1083,"ha":1259,"o":"m 546 388 l 176 388 l 176 555 l 546 555 l 546 882 l 714 882 l 714 555 l 1083 555 l 1083 388 l 714 388 l 714 63 l 546 63 l 546 388 "},"‚":{"x_min":56,"x_max":390,"ha":464,"o":"m 94 275 l 390 275 l 390 4 q 382 -124 390 -81 q 354 -192 374 -166 q 283 -237 327 -226 q 126 -248 238 -248 q 56 -247 95 -248 l 56 -102 l 76 -102 l 100 -102 q 155 -84 138 -102 q 172 -25 172 -66 l 172 0 l 94 0 l 94 275 "},"½":{"x_min":82.578125,"x_max":1879,"ha":1948,"o":"m 302 926 l 591 926 l 591 370 l 402 370 l 402 773 l 363 773 l 188 635 l 82 750 l 302 926 m 1213 938 l 1321 850 l 622 -12 l 513 75 l 1213 938 m 1351 365 l 1168 365 q 1168 383 1168 380 q 1187 489 1168 454 q 1252 541 1206 525 q 1541 562 1310 562 q 1739 557 1692 562 q 1815 537 1787 553 q 1861 486 1848 519 q 1875 391 1875 453 q 1862 296 1875 330 q 1819 242 1849 261 q 1691 211 1784 219 q 1540 200 1678 209 q 1404 191 1433 194 q 1366 182 1376 188 q 1354 167 1357 176 q 1351 127 1352 158 l 1879 127 l 1879 0 l 1177 0 q 1175 68 1175 35 q 1183 212 1175 172 q 1217 275 1191 251 q 1333 316 1250 305 q 1492 329 1352 319 q 1675 347 1654 340 q 1692 358 1688 351 q 1697 384 1697 365 q 1676 424 1697 418 q 1538 431 1656 431 q 1363 421 1378 431 q 1353 407 1355 416 q 1351 365 1351 398 "},"Æ":{"x_min":-27.453125,"x_max":1902,"ha":1926,"o":"m 600 926 l 1902 926 l 1902 708 l 1178 708 l 1178 574 l 1859 574 l 1859 371 l 1178 371 l 1178 222 l 1900 222 l 1900 0 l 903 0 l 903 158 l 412 158 l 307 -7 l -27 -7 l 600 926 m 762 705 l 543 364 l 903 364 l 903 705 l 762 705 "},"₣":{"x_min":63,"x_max":1608,"ha":1642,"o":"m 63 926 l 964 926 l 964 708 l 336 708 l 336 533 l 764 533 l 764 320 l 336 320 l 336 0 l 63 0 l 63 926 m 888 565 l 1112 565 l 1112 465 l 1123 465 q 1209 554 1156 526 q 1349 582 1262 582 q 1564 508 1507 582 q 1598 433 1588 476 q 1608 316 1608 390 q 1607 272 1608 306 l 1383 272 q 1371 351 1383 328 q 1268 396 1348 396 q 1202 382 1233 396 q 1156 348 1172 369 q 1132 289 1138 324 q 1126 179 1126 255 l 1126 0 l 888 0 l 888 565 "},"ğ":{"x_min":37,"x_max":964,"ha":1015,"o":"m 184 998 l 318 998 q 362 932 334 950 q 508 899 413 899 q 635 922 591 899 q 698 998 679 945 l 831 998 q 766 854 818 910 q 512 760 680 760 q 288 823 375 760 q 184 998 202 886 m 733 657 l 964 657 l 964 53 q 960 -58 964 -29 q 942 -128 957 -88 q 889 -211 926 -174 q 803 -264 851 -248 q 481 -299 701 -299 q 249 -283 325 -299 q 125 -226 172 -267 q 53 -60 63 -171 l 303 -60 l 305 -66 q 352 -116 316 -104 q 485 -129 388 -129 q 625 -119 582 -129 q 691 -86 668 -110 q 713 -40 708 -65 q 719 53 719 -15 l 719 111 l 709 111 q 615 29 672 50 q 437 8 559 8 q 240 20 311 8 q 126 63 169 33 q 56 161 75 100 q 37 349 37 222 q 75 563 37 502 q 194 649 114 625 q 440 674 273 674 q 624 653 568 674 q 721 571 681 632 l 733 571 l 733 657 m 509 489 q 327 464 371 489 q 293 422 303 450 q 283 341 283 395 q 296 249 283 277 q 348 207 310 220 q 496 193 392 193 q 680 222 637 193 q 709 263 701 237 q 718 341 718 288 q 707 426 718 398 q 669 467 696 454 q 509 489 625 489 "},"Ë":{"x_min":65,"x_max":1096,"ha":1119,"o":"m 65 926 l 1091 926 l 1091 708 l 343 708 l 343 574 l 1053 574 l 1053 371 l 343 371 l 343 222 l 1096 222 l 1096 0 l 65 0 l 65 926 m 236 1267 l 505 1267 l 505 1067 l 236 1067 l 236 1267 m 652 1267 l 921 1267 l 921 1067 l 652 1067 l 652 1267 "},"'":{"x_min":50.859375,"x_max":319.421875,"ha":370,"o":"m 292 517 l 77 517 l 50 926 l 319 926 l 292 517 "},"Š":{"x_min":32.546875,"x_max":1166,"ha":1198,"o":"m 32 307 l 305 307 q 333 218 305 237 q 386 202 354 205 q 589 199 418 200 q 804 201 768 199 q 861 211 840 203 q 893 281 893 224 q 870 337 893 323 q 781 352 848 351 q 559 360 728 352 q 334 370 386 368 q 178 389 232 373 q 93 441 123 405 q 41 640 41 500 q 100 861 41 797 q 240 926 146 912 q 623 940 334 940 q 910 928 827 940 q 1085 857 1038 910 q 1133 678 1133 804 q 1131 635 1133 666 l 858 635 q 852 687 857 673 q 832 711 847 702 q 767 724 813 721 q 572 728 721 728 q 353 716 392 728 q 314 654 314 705 q 353 594 314 605 q 652 577 385 586 q 952 562 877 571 q 1073 527 1028 552 q 1144 443 1123 496 q 1166 290 1166 389 q 1130 95 1166 159 q 1057 25 1104 48 q 924 -5 1010 2 q 583 -14 833 -14 q 275 -3 374 -14 q 125 35 175 7 q 53 114 73 65 q 33 263 33 163 l 32 307 m 939 1205 l 593 1018 l 248 1205 l 286 1295 l 593 1217 l 900 1295 l 939 1205 "},"ª":{"x_min":48,"x_max":620,"ha":677,"o":"m 232 648 l 64 648 q 137 753 70 720 q 376 779 190 779 q 516 771 478 779 q 582 738 554 764 q 611 690 603 718 q 620 608 620 662 l 620 370 l 457 370 l 457 422 l 448 422 q 398 371 435 382 q 243 360 361 360 q 137 367 173 360 q 80 394 102 374 q 48 481 48 423 q 117 594 48 563 q 306 614 162 614 q 400 607 374 614 q 442 579 426 601 l 452 579 l 452 611 q 436 663 452 653 q 351 673 420 673 q 258 668 277 673 q 232 648 239 664 m 329 535 q 240 526 263 535 q 217 492 217 517 q 237 458 217 467 q 319 450 258 450 q 421 459 394 450 q 449 496 449 469 q 428 529 449 520 q 329 535 417 534 "},"Œ":{"x_min":46,"x_max":2068,"ha":2091,"o":"m 2062 926 l 2062 708 l 1314 708 l 1314 574 l 2024 574 l 2024 371 l 1314 371 l 1314 222 l 2068 222 l 2068 0 l 1070 0 q 722 -14 953 -14 q 322 3 460 -14 q 130 60 183 21 q 62 175 79 98 q 46 453 46 253 q 52 656 46 581 q 76 783 59 731 q 260 923 114 902 q 625 940 381 940 q 856 935 722 940 q 1048 926 990 931 l 2062 926 m 671 698 q 393 679 445 698 q 342 616 356 666 q 328 446 328 566 q 345 291 328 331 q 420 238 363 250 q 632 227 474 227 q 852 229 788 227 q 951 239 917 231 q 1019 292 1003 250 q 1035 465 1034 334 q 1036 511 1035 492 q 1023 633 1038 599 q 964 680 1008 668 q 671 698 911 696 "},"˛":{"x_min":320,"x_max":587.875,"ha":694,"o":"m 463 0 l 585 0 l 478 -102 q 446 -164 446 -132 q 519 -216 446 -216 l 587 -216 l 587 -325 l 480 -325 q 362 -294 404 -325 q 320 -209 320 -263 l 320 -169 q 366 -71 320 -105 l 463 0 "},"ð":{"x_min":37,"x_max":967,"ha":1004,"o":"m 614 906 l 799 971 l 831 878 l 686 828 l 884 616 q 948 501 924 573 q 967 332 967 448 q 961 202 967 247 q 943 121 956 157 q 800 4 907 29 q 501 -17 710 -17 q 239 -3 318 -17 q 112 48 159 9 q 52 144 68 84 q 37 331 37 203 q 43 455 37 413 q 68 533 49 497 q 212 635 110 614 q 461 656 313 656 q 611 646 528 656 l 512 766 l 327 701 l 295 794 l 445 847 l 368 940 l 583 940 l 614 906 m 504 489 q 339 470 382 489 q 295 422 308 455 q 283 324 283 389 q 293 231 283 259 q 335 189 304 203 q 503 168 381 168 q 682 197 643 168 q 721 330 721 226 q 708 425 721 395 q 664 468 696 455 q 504 489 618 489 "},"T":{"x_min":0,"x_max":1120,"ha":1120,"o":"m 0 926 l 1120 926 l 1120 690 l 708 690 l 708 0 l 412 0 l 412 690 l 0 690 l 0 926 "},"š":{"x_min":34.59375,"x_max":941,"ha":977,"o":"m 34 209 l 284 209 q 331 150 288 166 q 489 135 374 135 q 652 147 609 135 q 695 196 695 160 q 653 242 695 230 q 444 249 634 247 q 225 255 267 249 q 69 330 110 271 q 39 451 39 375 q 146 640 39 596 q 492 674 226 674 q 736 661 660 674 q 854 613 812 648 q 891 561 880 591 q 907 471 902 530 l 657 471 q 640 502 650 495 q 485 522 609 522 q 327 510 370 522 q 285 468 285 498 q 343 424 285 428 q 678 418 390 420 q 878 371 816 418 q 941 213 941 326 q 916 92 941 139 q 839 23 892 46 q 472 -17 753 -17 q 214 -3 292 -17 q 92 51 136 10 q 34 209 36 101 m 815 931 l 488 731 l 161 931 l 199 1013 l 488 910 l 777 1013 l 815 931 "},"Þ":{"x_min":65,"x_max":1177,"ha":1204,"o":"m 65 0 l 65 926 l 348 926 l 348 833 l 699 833 q 942 825 888 833 q 1128 737 1080 807 q 1177 486 1177 666 q 1137 245 1177 315 q 1061 174 1109 199 q 927 140 1012 150 q 702 134 866 134 l 347 134 l 347 0 l 65 0 m 347 365 l 699 365 q 817 367 795 365 q 856 378 838 369 q 885 413 877 390 q 894 486 894 436 q 883 558 894 535 q 848 592 873 582 q 699 602 828 599 l 347 602 l 347 365 "},"j":{"x_min":-18,"x_max":336,"ha":390,"o":"m 90 657 l 336 657 l 336 40 q 331 -90 336 -56 q 312 -154 327 -124 q 229 -228 287 -206 q 58 -250 171 -250 q -18 -246 19 -250 l -18 -78 q 15 -80 3 -80 q 85 -29 75 -80 q 90 75 90 -2 l 90 657 m 90 926 l 336 926 l 336 741 l 90 741 l 90 926 "},"ş":{"x_min":34.171875,"x_max":942,"ha":977,"o":"m 497 -16 l 497 -74 l 597 -74 q 659 -89 644 -74 q 675 -153 675 -105 l 675 -288 q 659 -355 675 -341 q 583 -369 644 -369 l 392 -369 l 392 -269 l 509 -269 q 545 -262 538 -269 q 553 -227 553 -255 l 553 -207 q 546 -174 553 -180 q 509 -169 540 -169 l 397 -169 l 397 -15 q 221 -4 276 -12 q 128 25 165 4 q 34 209 34 79 l 284 209 q 331 151 287 166 q 489 136 374 136 q 652 148 609 136 q 696 197 696 161 q 654 241 696 230 q 444 249 634 247 q 225 255 266 249 q 69 330 110 271 q 39 451 39 375 q 146 640 39 596 q 491 674 226 674 q 736 661 660 674 q 854 613 812 648 q 891 561 879 591 q 906 471 902 530 l 656 471 q 639 502 649 495 q 485 522 609 522 q 327 510 370 522 q 285 468 285 498 q 343 424 285 428 q 679 418 390 420 q 879 371 817 418 q 942 213 942 326 q 804 10 942 44 q 497 -16 703 -14 "},"1":{"x_min":144.484375,"x_max":929,"ha":1259,"o":"m 482 926 l 929 926 l 929 0 l 647 0 l 647 684 l 573 684 l 300 453 l 144 635 l 482 926 "},"›":{"x_min":46.109375,"x_max":464.546875,"ha":511,"o":"m 124 508 l 280 626 l 464 391 l 247 0 l 46 109 l 209 398 l 124 508 "},"ı":{"x_min":56,"x_max":302,"ha":357,"o":"m 56 657 l 302 657 l 302 0 l 56 0 l 56 657 "},"Ć":{"x_min":46,"x_max":1230,"ha":1263,"o":"m 829 1344 l 937 1127 l 542 989 l 484 1098 l 829 1344 m 945 357 l 1227 357 q 1230 269 1230 289 q 1198 102 1230 162 q 1060 10 1162 34 q 706 -14 958 -14 q 329 -3 442 -14 q 160 35 217 6 q 84 106 109 61 q 52 229 59 151 q 46 457 46 292 q 52 689 46 617 q 75 799 58 760 q 232 913 114 887 q 708 940 350 940 q 968 931 887 940 q 1098 901 1050 923 q 1187 812 1161 871 q 1213 640 1213 754 q 1212 594 1213 634 l 930 594 q 924 655 928 640 q 909 681 920 671 q 827 702 893 696 q 627 709 761 709 q 444 703 495 709 q 372 680 393 697 q 337 612 347 660 q 328 459 328 564 q 336 311 328 354 q 370 249 345 268 q 446 225 394 231 q 629 219 498 219 q 845 224 792 219 q 918 247 899 229 q 945 357 944 271 "},"ä":{"x_min":34,"x_max":921,"ha":972,"o":"m 305 451 l 60 451 q 93 567 65 527 q 229 652 137 630 q 543 675 322 675 q 764 662 705 675 q 864 609 823 650 q 909 530 897 576 q 921 395 921 485 l 921 0 l 685 0 l 685 90 l 672 90 q 586 6 645 32 q 499 -11 555 -6 q 320 -17 443 -17 q 167 -4 221 -17 q 81 38 114 8 q 34 187 34 84 q 90 352 34 301 q 208 404 135 392 q 478 417 281 417 q 599 407 563 417 q 664 366 635 397 l 675 366 l 675 400 q 646 496 675 477 q 506 516 618 516 q 342 505 373 516 q 305 451 311 495 m 469 277 q 315 262 345 277 q 280 208 280 244 q 315 154 280 168 q 449 140 350 140 q 623 155 577 140 q 670 214 670 171 q 630 268 670 253 q 469 277 611 275 m 185 968 l 443 968 l 443 792 l 185 792 l 185 968 m 538 968 l 796 968 l 796 792 l 538 792 l 538 968 "},"<":{"x_min":46,"x_max":648,"ha":694,"o":"m 648 910 l 648 643 l 329 462 l 648 282 l 648 15 l 46 351 l 46 575 l 648 910 "},"£":{"x_min":37,"x_max":1241,"ha":1259,"o":"m 37 518 l 187 518 l 187 569 q 191 714 187 668 q 208 799 195 760 q 266 879 224 846 q 366 921 308 911 q 680 937 456 937 q 979 927 882 937 q 1126 892 1077 917 q 1201 816 1179 865 q 1224 680 1224 768 q 1220 606 1224 663 l 956 606 q 940 690 956 671 q 878 716 924 709 q 728 724 831 724 q 549 717 597 724 q 483 692 501 711 q 461 569 461 667 l 461 518 l 847 518 l 847 348 l 461 348 l 461 337 q 444 269 461 296 q 387 220 427 242 l 1241 220 l 1241 0 l 85 0 l 85 214 q 140 221 125 217 q 166 238 155 225 q 187 328 187 263 l 187 348 l 37 348 l 37 518 "},"¹":{"x_min":91.578125,"x_max":600,"ha":812,"o":"m 311 926 l 600 926 l 600 370 l 411 370 l 411 773 l 372 773 l 197 635 l 91 750 l 311 926 "},"t":{"x_min":0,"x_max":795.203125,"ha":804,"o":"m 130 808 l 376 808 l 376 657 l 764 657 l 764 482 l 376 482 l 376 289 q 386 193 376 213 q 473 160 405 160 q 561 192 544 160 q 569 217 568 205 q 571 281 571 229 l 795 281 q 784 144 793 186 q 745 66 774 102 q 644 1 709 20 q 452 -17 579 -17 q 276 -4 334 -17 q 183 43 219 8 q 145 100 157 69 q 131 184 134 130 q 130 289 130 203 l 130 482 l 0 482 l 0 657 l 130 657 l 130 808 "},"¬":{"x_min":46,"x_max":648,"ha":694,"o":"m 387 0 l 387 180 l 46 180 l 46 415 l 648 415 l 648 0 l 387 0 "},"ù":{"x_min":51,"x_max":941,"ha":996,"o":"m 941 0 l 710 0 l 710 98 l 697 98 q 604 9 667 35 q 415 -17 540 -17 q 234 1 301 -17 q 123 65 167 20 q 64 167 78 111 q 51 356 51 222 l 51 657 l 297 657 l 297 356 q 303 254 297 284 q 330 203 310 223 q 385 175 351 183 q 489 168 419 168 q 651 204 609 168 q 686 263 678 227 q 695 392 695 300 l 695 657 l 941 657 l 941 0 m 362 1080 l 647 795 l 585 716 l 237 912 l 362 1080 "},"W":{"x_min":-18.3125,"x_max":1932.109375,"ha":1914,"o":"m -18 926 l 269 926 l 517 233 l 569 233 l 779 926 l 1119 926 l 1330 233 l 1383 233 l 1633 926 l 1932 926 l 1572 0 l 1136 0 l 950 678 l 767 0 l 330 0 l -18 926 "},"Ğ":{"x_min":46,"x_max":1273,"ha":1320,"o":"m 313 1275 l 452 1275 q 498 1226 470 1239 q 650 1201 553 1201 q 783 1217 737 1201 q 848 1275 828 1234 l 986 1275 q 919 1143 974 1195 q 654 1058 829 1058 q 422 1115 512 1058 q 313 1275 332 1172 m 627 525 l 1271 525 q 1273 499 1273 502 q 1262 204 1273 303 q 1081 10 1246 44 q 918 -8 1009 -3 q 637 -14 826 -14 q 300 -1 399 -14 q 143 50 201 11 q 83 118 104 76 q 54 227 62 159 q 46 477 46 290 q 52 668 46 603 q 79 783 59 732 q 249 913 119 890 q 686 939 391 939 q 963 930 861 939 q 1130 901 1065 921 q 1259 757 1237 867 q 1271 606 1270 702 l 989 606 q 984 659 988 645 q 967 682 980 673 q 868 703 943 699 q 662 708 797 708 q 453 701 515 708 q 367 676 390 694 q 336 614 344 657 q 328 466 328 571 q 336 302 328 349 q 367 237 344 256 q 427 215 390 219 q 660 209 464 211 q 894 212 853 210 q 960 225 935 215 q 989 254 981 234 q 998 314 998 274 q 997 340 998 320 l 627 340 l 627 525 "},"ï":{"x_min":-85,"x_max":442,"ha":357,"o":"m 56 657 l 302 657 l 302 0 l 56 0 l 56 657 m -85 968 l 146 968 l 146 792 l -85 792 l -85 968 m 211 968 l 442 968 l 442 792 l 211 792 l 211 968 "},">":{"x_min":46,"x_max":648,"ha":694,"o":"m 46 910 l 648 575 l 648 351 l 46 15 l 46 282 l 364 462 l 46 643 l 46 910 "},"v":{"x_min":-18.3125,"x_max":946.71875,"ha":928,"o":"m -18 657 l 261 657 l 465 190 l 668 657 l 946 657 l 623 0 l 305 0 l -18 657 "},"û":{"x_min":51,"x_max":941,"ha":996,"o":"m 941 0 l 710 0 l 710 98 l 697 98 q 604 9 667 35 q 415 -17 540 -17 q 234 1 301 -17 q 123 65 167 20 q 64 167 78 111 q 51 356 51 222 l 51 657 l 297 657 l 297 356 q 303 254 297 284 q 330 203 310 223 q 385 175 351 183 q 489 168 419 168 q 651 204 609 168 q 686 263 678 227 q 695 392 695 300 l 695 657 l 941 657 l 941 0 m 180 827 l 507 1028 l 834 827 l 796 745 l 507 848 l 218 745 l 180 827 "},"Ò":{"x_min":46,"x_max":1318,"ha":1364,"o":"m 682 939 q 1094 924 981 939 q 1292 770 1256 902 q 1318 462 1318 679 q 1292 154 1318 245 q 1094 0 1256 22 q 684 -14 981 -14 q 269 0 382 -14 q 71 154 107 22 q 46 468 46 245 q 71 770 46 679 q 269 924 107 902 q 682 939 381 939 m 682 698 q 412 686 458 698 q 344 625 360 672 q 328 438 328 578 q 336 315 328 353 q 439 235 353 245 q 684 227 502 227 q 910 233 854 227 q 993 260 966 239 q 1027 316 1018 279 q 1036 437 1036 353 q 1029 583 1036 536 q 1004 653 1022 630 q 930 690 982 683 q 682 698 879 698 m 372 1126 l 481 1342 l 825 1096 l 769 990 l 372 1126 "},"&":{"x_min":37,"x_max":1371.265625,"ha":1315,"o":"m 929 507 l 1167 507 q 1167 452 1167 484 q 1154 281 1167 324 l 1371 174 l 1282 -4 l 1088 94 q 942 11 1044 32 q 584 -10 840 -10 q 270 0 364 -10 q 127 40 176 10 q 57 126 77 71 q 37 285 37 180 q 75 461 37 414 q 229 523 113 508 q 157 585 176 545 q 138 712 138 625 q 178 865 138 819 q 245 910 204 895 q 358 930 286 924 q 579 935 419 935 q 882 928 807 935 q 999 899 958 922 q 1062 827 1044 874 q 1080 685 1080 779 q 1078 632 1080 676 l 831 632 q 815 715 828 703 q 634 732 796 732 q 428 724 448 732 q 400 678 400 714 q 409 646 400 656 q 457 617 419 636 l 928 388 l 928 400 q 930 464 930 452 q 929 507 930 483 m 394 418 q 314 392 329 411 q 299 301 299 374 q 311 228 299 249 q 362 201 324 208 q 554 195 403 195 q 721 196 569 195 q 834 197 822 196 q 861 205 845 198 l 394 418 "},"˝":{"x_min":76.640625,"x_max":765.65625,"ha":694,"o":"m 460 934 l 135 716 l 76 783 l 336 1079 l 460 934 m 765 934 l 441 716 l 382 783 l 642 1079 l 765 934 "},"Ð":{"x_min":-7,"x_max":1300,"ha":1348,"o":"m 79 926 l 746 926 q 978 923 923 926 q 1092 908 1033 920 q 1273 750 1231 879 q 1294 646 1289 702 q 1300 477 1300 590 q 1293 288 1300 352 q 1269 172 1287 225 q 1099 22 1228 50 q 970 4 1039 8 q 746 0 902 0 l 79 0 l 79 382 l -7 382 l -7 557 l 79 557 l 79 926 m 357 236 l 748 236 q 907 243 856 236 q 980 267 959 250 q 1012 330 1003 287 q 1022 459 1022 372 q 1013 589 1022 546 q 985 655 1005 632 q 918 687 962 680 q 746 695 875 695 l 357 695 l 357 557 l 766 557 l 766 382 l 357 382 l 357 236 "},"I":{"x_min":65,"x_max":361,"ha":426,"o":"m 65 926 l 361 926 l 361 0 l 65 0 l 65 926 "},"ˉ":{"x_min":46,"x_max":649,"ha":694,"o":"m 46 951 l 649 951 l 649 809 l 46 809 l 46 951 "},"G":{"x_min":46,"x_max":1273,"ha":1320,"o":"m 627 525 l 1271 525 q 1273 499 1273 502 q 1262 204 1273 303 q 1081 10 1246 44 q 918 -8 1009 -3 q 637 -14 826 -14 q 300 -1 399 -14 q 143 50 201 11 q 83 118 104 76 q 54 227 62 159 q 46 477 46 290 q 52 668 46 603 q 79 783 59 732 q 249 913 119 890 q 686 939 391 939 q 963 930 861 939 q 1130 901 1065 921 q 1259 757 1237 867 q 1271 606 1270 702 l 989 606 q 984 659 988 645 q 967 682 980 673 q 868 703 943 699 q 662 708 797 708 q 453 701 515 708 q 367 676 390 694 q 336 614 344 657 q 328 466 328 571 q 336 302 328 349 q 367 237 344 256 q 427 215 390 219 q 660 209 464 211 q 894 212 853 210 q 960 225 935 215 q 989 254 981 234 q 998 314 998 274 q 997 340 998 320 l 627 340 l 627 525 "},"`":{"x_min":77.3125,"x_max":487.609375,"ha":694,"o":"m 202 1080 l 487 795 l 425 716 l 77 912 l 202 1080 "},"·":{"x_min":79,"x_max":375,"ha":454,"o":"m 79 456 l 375 456 l 375 210 l 79 210 l 79 456 "},"r":{"x_min":56,"x_max":819,"ha":827,"o":"m 56 657 l 287 657 l 287 558 l 299 558 q 392 647 334 621 q 554 674 450 674 q 760 615 702 674 q 819 409 819 557 q 818 365 819 400 l 586 365 q 574 445 586 422 q 457 489 550 489 q 333 441 369 489 q 308 382 314 417 q 302 272 302 347 l 302 0 l 56 0 l 56 657 "},"¿":{"x_min":23,"x_max":961.90625,"ha":980,"o":"m 718 331 l 961 331 q 961 282 961 293 q 954 160 961 203 q 926 90 946 118 q 856 31 900 52 q 737 0 813 11 q 462 -14 633 -14 q 117 30 201 -14 q 44 111 65 59 q 23 267 23 164 q 33 386 23 342 q 68 458 44 429 q 144 506 96 491 q 342 548 191 522 q 410 567 397 557 q 424 612 423 577 l 666 612 q 668 576 668 583 q 630 422 668 463 q 472 362 592 381 q 305 327 342 341 q 263 258 263 312 q 313 188 263 201 q 484 178 351 178 q 650 184 613 178 q 715 252 710 194 q 717 310 716 270 q 718 331 717 316 m 692 680 l 392 680 l 392 926 l 692 926 l 692 680 "},"Č":{"x_min":46,"x_max":1230,"ha":1263,"o":"m 976 1205 l 630 1018 l 285 1205 l 323 1295 l 630 1217 l 937 1295 l 976 1205 m 945 357 l 1227 357 q 1230 269 1230 289 q 1198 102 1230 162 q 1060 10 1162 34 q 706 -14 958 -14 q 329 -3 442 -14 q 160 35 217 6 q 84 106 109 61 q 52 229 59 151 q 46 457 46 292 q 52 689 46 617 q 75 799 58 760 q 232 913 114 887 q 708 940 350 940 q 968 931 887 940 q 1098 901 1050 923 q 1187 812 1161 871 q 1213 640 1213 754 q 1212 594 1213 634 l 930 594 q 924 655 928 640 q 909 681 920 671 q 827 702 893 696 q 627 709 761 709 q 444 703 495 709 q 372 680 393 697 q 337 612 347 660 q 328 459 328 564 q 336 311 328 354 q 370 249 345 268 q 446 225 394 231 q 629 219 498 219 q 845 224 792 219 q 918 247 899 229 q 945 357 944 271 "},"ý":{"x_min":-18.203125,"x_max":919.703125,"ha":901,"o":"m -18 657 l 251 657 l 438 179 l 647 657 l 919 657 l 569 -85 q 502 -216 518 -192 q 455 -260 487 -241 q 276 -296 398 -296 q 171 -292 197 -296 l 171 -122 q 225 -122 185 -122 q 316 -99 288 -122 q 374 0 345 -75 l 274 0 l -18 657 m 304 797 l 591 1082 l 715 913 l 368 714 l 304 797 "},"x":{"x_min":0,"x_max":950.109375,"ha":950,"o":"m 8 657 l 339 657 l 463 482 l 474 482 l 606 657 l 922 657 l 658 352 l 950 0 l 634 0 l 478 222 l 465 222 l 303 0 l 0 0 l 282 339 l 8 657 "},"è":{"x_min":37,"x_max":926,"ha":963,"o":"m 676 210 l 920 210 q 855 56 910 102 q 721 -1 808 14 q 461 -17 634 -17 q 241 -3 317 -17 q 119 44 164 10 q 54 140 72 80 q 37 324 37 200 q 43 465 37 418 q 69 550 50 512 q 211 652 108 628 q 485 673 300 673 q 717 661 650 673 q 881 572 836 641 q 926 341 926 503 q 925 275 926 325 l 282 275 q 289 203 282 224 q 314 167 295 181 q 480 140 351 140 q 603 146 562 140 q 659 167 644 152 q 676 210 671 180 m 679 409 q 674 462 678 447 q 659 488 670 476 q 489 521 627 521 q 325 499 365 521 q 282 409 285 477 l 679 409 m 346 1080 l 631 795 l 569 716 l 221 912 l 346 1080 "},"º":{"x_min":49,"x_max":648,"ha":697,"o":"m 348 779 q 508 771 455 779 q 591 742 561 763 q 636 686 624 720 q 648 576 648 651 q 637 459 648 496 q 597 401 627 423 q 516 369 566 377 q 349 361 465 361 q 181 369 231 361 q 99 401 130 377 q 59 460 69 424 q 49 582 49 496 q 61 686 49 651 q 105 742 73 721 q 188 771 136 763 q 348 779 240 779 m 349 657 q 240 641 264 657 q 217 567 217 625 q 222 516 217 531 q 246 494 228 502 q 348 483 274 483 q 457 498 434 483 q 480 571 480 513 q 473 623 480 607 q 448 645 466 638 q 349 657 419 657 "},"Ø":{"x_min":-26,"x_max":1420,"ha":1400,"o":"m -26 -28 l -26 140 l 78 200 q 64 452 64 286 q 69 649 64 581 q 89 770 74 718 q 287 924 125 902 q 695 939 400 939 q 1094 926 994 939 q 1250 870 1194 914 l 1420 967 l 1420 798 l 1318 739 q 1336 475 1336 650 q 1330 275 1336 344 q 1310 154 1325 206 q 1112 0 1274 22 q 701 -14 1000 -14 q 292 0 390 -14 q 138 65 195 13 l -26 -28 m 939 692 q 760 698 876 698 l 699 698 q 502 695 543 697 q 431 686 460 693 q 362 624 378 672 q 346 436 346 577 q 349 354 346 382 l 939 692 m 439 237 q 699 227 502 227 q 928 233 872 227 q 1011 260 984 239 q 1045 316 1037 279 q 1054 438 1054 353 q 1046 584 1054 539 l 439 237 "},"÷":{"x_min":176,"x_max":1083,"ha":1259,"o":"m 507 304 l 753 304 l 753 94 l 507 94 l 507 304 m 507 850 l 753 850 l 753 640 l 507 640 l 507 850 m 176 555 l 1083 555 l 1083 388 l 176 388 l 176 555 "},"h":{"x_min":56,"x_max":945,"ha":997,"o":"m 56 926 l 302 926 l 302 557 l 312 557 q 407 646 343 619 q 588 674 472 674 q 764 655 697 674 q 872 592 830 636 q 930 492 915 547 q 945 320 945 436 l 945 0 l 699 0 l 699 320 q 693 405 699 378 q 671 450 687 433 q 509 489 636 489 q 339 446 381 489 q 309 391 317 425 q 302 280 302 356 l 302 0 l 56 0 l 56 926 "},".":{"x_min":79,"x_max":375,"ha":454,"o":"m 79 246 l 375 246 l 375 0 l 79 0 l 79 246 "},";":{"x_min":60,"x_max":395,"ha":473,"o":"m 99 275 l 395 275 l 395 4 q 387 -124 395 -81 q 359 -192 379 -166 q 287 -237 332 -226 q 131 -248 243 -248 q 60 -247 99 -248 l 60 -102 l 80 -102 l 105 -102 q 159 -84 142 -102 q 176 -25 176 -66 l 176 0 l 99 0 l 99 275 m 99 657 l 395 657 l 395 411 l 99 411 l 99 657 "},"f":{"x_min":0,"x_max":614,"ha":604,"o":"m 0 482 l 0 657 l 127 657 q 142 803 130 761 q 191 878 154 845 q 290 928 231 915 q 471 942 348 942 q 595 938 529 942 l 595 776 q 530 778 547 778 q 397 750 427 778 q 379 719 383 737 q 373 657 374 701 l 614 657 l 614 482 l 373 482 l 373 0 l 127 0 l 127 482 l 0 482 "},"“":{"x_min":74,"x_max":784.21875,"ha":840,"o":"m 755 407 l 473 407 l 473 677 q 480 805 473 763 q 506 874 487 848 q 571 919 530 908 q 713 930 612 930 q 784 929 743 930 l 784 793 l 765 793 l 748 793 q 690 775 708 793 q 673 717 673 757 l 673 682 l 755 682 l 755 407 m 356 407 l 74 407 l 74 677 q 81 805 74 763 q 107 874 88 848 q 172 919 131 908 q 314 930 213 930 q 385 929 344 930 l 385 793 l 364 793 l 349 793 q 291 775 309 793 q 274 717 274 757 l 274 682 l 356 682 l 356 407 "},"A":{"x_min":-23.0625,"x_max":1390.25,"ha":1367,"o":"m 1070 0 l 990 157 l 378 157 l 299 0 l -23 0 l 467 926 l 906 926 l 1390 0 l 1070 0 m 891 360 l 713 711 l 657 711 l 478 360 l 891 360 "},"6":{"x_min":77,"x_max":1170.515625,"ha":1259,"o":"m 1170 667 l 906 667 q 891 709 904 700 q 865 719 880 717 q 789 724 849 722 q 626 729 697 729 q 388 708 436 729 q 355 669 364 699 q 346 569 346 639 q 346 517 346 550 q 469 584 400 569 q 721 600 539 600 q 1079 542 995 600 q 1164 297 1164 484 q 1130 98 1164 158 q 1057 28 1103 51 q 926 -3 1010 5 q 575 -12 836 -12 q 263 8 362 -12 q 93 170 121 38 q 80 282 83 219 q 77 492 77 344 q 80 659 77 608 q 93 755 83 709 q 201 892 117 857 q 652 937 310 937 q 1023 914 915 937 q 1161 787 1142 890 q 1170 667 1169 745 m 587 392 q 399 379 429 392 q 351 293 351 360 q 362 233 351 254 q 401 204 374 211 q 580 196 434 196 q 822 202 759 196 q 875 227 859 206 q 891 292 891 247 q 876 358 891 337 q 825 384 861 379 q 587 392 771 392 "},"‘":{"x_min":74,"x_max":408.96875,"ha":464,"o":"m 370 407 l 74 407 l 74 677 q 81 806 74 763 q 109 875 89 849 q 181 920 136 909 q 337 931 225 931 q 408 929 369 931 l 408 783 l 388 783 l 363 783 q 309 766 326 783 q 293 708 293 748 l 293 682 l 370 682 l 370 407 "},"π":{"x_min":28,"x_max":886,"ha":915,"o":"m 130 0 l 130 480 l 28 480 l 28 667 l 886 667 l 886 480 l 785 480 l 785 0 l 548 0 l 548 480 l 367 480 l 367 0 l 130 0 "},"O":{"x_min":46,"x_max":1318,"ha":1364,"o":"m 682 939 q 1094 924 981 939 q 1292 770 1256 902 q 1318 462 1318 679 q 1292 154 1318 245 q 1094 0 1256 22 q 684 -14 981 -14 q 269 0 382 -14 q 71 154 107 22 q 46 468 46 245 q 71 770 46 679 q 269 924 107 902 q 682 939 381 939 m 682 698 q 412 686 458 698 q 344 625 360 672 q 328 438 328 578 q 336 315 328 353 q 439 235 353 245 q 684 227 502 227 q 910 233 854 227 q 993 260 966 239 q 1027 316 1018 279 q 1036 437 1036 353 q 1029 583 1036 536 q 1004 653 1022 630 q 930 690 982 683 q 682 698 879 698 "},"n":{"x_min":56,"x_max":947,"ha":998,"o":"m 56 657 l 287 657 l 287 557 l 300 557 q 397 647 333 621 q 578 674 460 674 q 763 655 696 674 q 874 591 831 636 q 933 489 919 545 q 947 298 947 434 l 947 0 l 701 0 l 701 298 q 695 405 701 377 q 669 453 689 434 q 505 489 634 489 q 337 445 378 489 q 308 387 315 421 q 302 262 302 352 l 302 0 l 56 0 l 56 657 "},"3":{"x_min":66,"x_max":1175,"ha":1259,"o":"m 337 604 l 69 604 l 69 659 q 113 843 69 790 q 187 896 142 878 q 313 923 233 914 q 658 937 434 937 q 940 926 853 937 q 1070 888 1026 916 q 1137 810 1117 859 q 1157 677 1157 762 q 1125 535 1157 578 q 1006 475 1093 492 q 1115 436 1086 456 q 1161 372 1147 414 q 1175 255 1175 329 q 1138 90 1175 141 q 972 8 1092 28 q 519 -12 852 -12 q 335 -6 397 -12 q 217 13 273 -1 q 74 165 93 46 q 66 333 66 222 l 334 333 q 335 316 335 320 q 345 240 335 261 q 382 214 354 220 q 616 206 406 208 q 824 212 792 210 q 874 226 857 215 q 902 289 902 243 q 861 359 902 348 q 661 369 829 369 l 498 369 l 498 569 l 711 569 q 850 584 816 569 q 884 648 884 600 q 848 711 884 698 q 624 724 814 724 q 420 719 468 724 q 356 700 371 715 q 342 677 344 689 q 337 604 339 665 "},"9":{"x_min":85,"x_max":1184,"ha":1259,"o":"m 107 269 l 376 269 q 377 258 377 260 q 385 223 379 232 q 410 208 391 214 q 601 196 450 196 q 833 207 775 196 q 902 257 890 219 q 913 408 912 289 q 854 360 882 373 q 741 331 809 339 q 550 323 672 323 q 196 359 282 323 q 110 446 135 386 q 85 630 85 507 q 126 837 85 778 q 270 916 167 895 q 619 937 373 937 q 939 922 831 937 q 1095 874 1047 908 q 1167 751 1150 835 q 1184 427 1184 667 q 1167 172 1184 245 q 1002 17 1140 47 q 534 -12 859 -12 q 304 -1 382 -12 q 181 36 225 9 q 122 109 137 62 q 107 269 107 156 m 623 729 q 400 713 442 729 q 358 629 358 697 q 368 567 358 586 q 405 541 378 548 q 603 531 443 531 q 870 546 833 531 q 901 574 892 555 q 911 631 911 593 q 901 690 911 671 q 865 716 891 708 q 623 729 821 729 "},"l":{"x_min":56,"x_max":302,"ha":357,"o":"m 56 926 l 302 926 l 302 0 l 56 0 l 56 926 "},"¤":{"x_min":141.0625,"x_max":1118.296875,"ha":1259,"o":"m 1003 649 q 1022 582 1017 615 q 1027 470 1027 548 q 1022 349 1027 389 q 1003 276 1017 309 l 1118 161 l 1000 44 l 863 181 q 630 168 788 168 q 396 181 470 168 l 259 44 l 141 161 l 256 276 q 237 349 242 309 q 232 469 232 389 q 236 581 232 547 q 256 649 241 616 l 141 764 l 259 881 l 396 743 q 629 758 476 758 q 861 743 783 758 l 1000 881 l 1118 764 l 1003 649 m 631 615 q 459 586 497 615 q 421 458 421 558 q 431 371 421 397 q 470 331 441 344 q 631 311 515 311 q 801 338 764 311 q 838 464 838 365 q 826 554 838 526 q 784 596 814 583 q 631 615 739 615 "},"":{"x_min":0,"x_max":905,"ha":961,"o":"m 0 482 l 0 657 l 127 657 q 146 801 131 759 q 203 874 160 841 q 299 920 245 908 q 549 942 384 942 q 905 925 727 942 l 905 763 q 604 778 715 778 q 419 757 463 778 q 383 726 392 746 q 373 657 375 707 l 905 657 l 905 0 l 659 0 l 659 482 l 373 482 l 373 0 l 127 0 l 127 482 l 0 482 "},"4":{"x_min":64,"x_max":1251,"ha":1259,"o":"m 1251 380 l 1251 172 l 1072 172 l 1072 0 l 804 0 l 804 172 l 64 172 l 64 526 l 614 926 l 1072 926 l 1072 380 l 1251 380 m 804 380 l 804 711 l 746 711 l 316 416 l 316 380 l 804 380 "},"p":{"x_min":56,"x_max":983,"ha":1019,"o":"m 56 -273 l 56 657 l 287 657 l 287 568 l 301 568 q 396 651 332 629 q 602 674 460 674 q 801 657 729 674 q 915 602 873 640 q 968 508 954 566 q 983 325 983 450 q 976 195 983 242 q 953 109 970 148 q 844 10 923 37 q 591 -17 765 -17 q 407 4 466 -17 q 313 85 349 25 l 302 85 l 302 -273 l 56 -273 m 528 489 q 337 457 373 489 q 302 321 302 426 q 312 236 302 265 q 347 193 322 207 q 520 168 390 168 q 697 195 656 168 q 728 241 720 210 q 737 338 737 272 q 726 425 737 398 q 688 466 716 451 q 528 489 646 488 "},"‡":{"x_min":128,"x_max":1119,"ha":1259,"o":"m 485 588 l 128 588 l 128 778 l 485 778 l 485 1074 l 763 1074 l 763 778 l 1119 778 l 1119 588 l 763 588 l 763 370 l 1119 370 l 1119 180 l 763 180 l 763 -130 l 485 -130 l 485 180 l 128 180 l 128 370 l 485 370 l 485 588 "},"à":{"x_min":34,"x_max":921,"ha":972,"o":"m 305 451 l 60 451 q 93 567 65 527 q 229 652 137 630 q 543 675 322 675 q 764 662 705 675 q 864 609 823 650 q 909 530 897 576 q 921 395 921 485 l 921 0 l 685 0 l 685 90 l 672 90 q 586 6 645 32 q 499 -11 555 -6 q 320 -17 443 -17 q 167 -4 221 -17 q 81 38 114 8 q 34 187 34 84 q 90 352 34 301 q 208 404 135 392 q 478 417 281 417 q 599 407 563 417 q 664 366 635 397 l 675 366 l 675 400 q 646 496 675 477 q 506 516 618 516 q 342 505 373 516 q 305 451 311 495 m 469 277 q 315 262 345 277 q 280 208 280 244 q 315 154 280 168 q 449 140 350 140 q 623 155 577 140 q 670 214 670 171 q 630 268 670 253 q 469 277 611 275 m 350 1080 l 635 795 l 573 716 l 225 912 l 350 1080 "},"Ü":{"x_min":60,"x_max":1263,"ha":1324,"o":"m 60 926 l 342 926 l 342 500 q 352 315 344 353 q 422 243 363 260 q 662 227 481 227 q 865 235 808 227 q 945 269 921 243 q 967 311 961 286 q 977 398 974 336 q 981 500 981 460 l 981 926 l 1263 926 l 1263 500 q 1248 209 1258 278 q 1137 38 1231 93 q 986 -3 1083 7 q 665 -14 888 -14 q 407 -7 498 -14 q 249 13 316 -1 q 75 193 100 49 q 63 292 66 248 q 60 500 61 337 l 60 926 m 320 1267 l 589 1267 l 589 1067 l 320 1067 l 320 1267 m 736 1267 l 1005 1267 l 1005 1067 l 736 1067 l 736 1267 "},"ó":{"x_min":37,"x_max":967,"ha":1004,"o":"m 502 674 q 752 660 669 674 q 882 613 836 647 q 949 521 931 578 q 967 341 967 464 q 961 203 967 249 q 943 121 956 157 q 800 4 907 29 q 503 -17 710 -17 q 239 -3 319 -17 q 112 48 160 9 q 52 146 67 86 q 37 349 37 206 q 43 473 37 431 q 68 551 49 516 q 194 648 105 623 q 502 674 283 673 m 504 489 q 339 470 382 489 q 295 422 308 455 q 283 324 283 389 q 293 231 283 259 q 335 189 304 203 q 503 168 381 168 q 682 197 643 168 q 721 330 721 226 q 708 425 721 395 q 664 468 696 455 q 504 489 618 489 m 365 797 l 652 1082 l 776 913 l 429 714 l 365 797 "}}}
